<svg data-v-423bf9ae="" xmlns="http://www.w3.org/2000/svg" viewBox="0 0 496 107" class="iconLeftSlogan"><!----><!----><!----><g data-v-423bf9ae="" id="64cdfa3e-b672-4c56-90cf-7b22111fae4b" fill="#367D71" transform="matrix(2.478314839692896,0,0,2.478314839692896,102.25638199218591,24.262703139727556)"><path d="M1.50 5.96L1.50 5.96L1.50 5.96Q1.50 4.82 1.40 3.79L1.40 3.79L1.40 3.79Q1.30 2.76 1.19 1.97L1.19 1.97L1.19 1.97Q1.05 1.06 0.90 0.29L0.90 0.29L0 0.21L0 0.01L0 0.01Q0.34 0.06 0.83 0.08L0.83 0.08L0.83 0.08Q1.23 0.11 1.86 0.13L1.86 0.13L1.86 0.13Q2.49 0.15 3.33 0.15L3.33 0.15L3.33 0.15Q4.21 0.15 5.07 0.12L5.07 0.12L5.07 0.12Q5.92 0.08 6.94 0.01L6.94 0.01L6.94 0.01Q6.71 0.46 6.52 1.16L6.52 1.16L6.52 1.16Q6.34 1.86 6.31 2.53L6.31 2.53L6.31 2.53Q6.17 1.97 5.84 1.55L5.84 1.55L5.84 1.55Q5.52 1.13 5.05 0.87L5.05 0.87L5.05 0.87Q4.59 0.60 4.04 0.47L4.04 0.47L4.04 0.47Q3.49 0.34 2.91 0.34L2.91 0.34L2.91 0.34Q2.83 1.20 2.81 2.21L2.81 2.21L2.81 2.21Q2.79 3.22 2.79 4.10L2.79 4.10L2.79 4.10Q2.79 5.12 2.83 6.15L2.83 6.15L2.83 6.15Q3.44 6.13 4.07 6.05L4.07 6.05L4.07 6.05Q4.61 5.98 5.23 5.82L5.23 5.82L5.23 5.82Q5.85 5.67 6.40 5.39L6.40 5.39L6.40 5.39Q6.33 5.85 6.31 6.29L6.31 6.29L6.31 6.29Q6.29 6.72 6.29 7.06L6.29 7.06L6.29 7.06Q6.29 7.45 6.31 7.81L6.31 7.81L6.17 7.76L6.17 7.76Q6.19 7.32 5.88 7.07L5.88 7.07L5.88 7.07Q5.57 6.82 5.08 6.68L5.08 6.68L5.08 6.68Q4.59 6.55 3.99 6.52L3.99 6.52L3.99 6.52Q3.39 6.50 2.83 6.51L2.83 6.51L2.83 6.51Q2.80 6.93 2.79 7.43L2.79 7.43L2.79 7.43Q2.79 7.92 2.79 8.43L2.79 8.43L2.79 8.43Q2.80 8.95 2.81 9.46L2.81 9.46L2.81 9.46Q2.83 9.98 2.86 10.46L2.86 10.46L2.86 10.46Q2.91 11.58 2.97 12.73L2.97 12.73L2.97 12.73Q4.12 12.84 5.05 12.78L5.05 12.78L5.05 12.78Q5.45 12.77 5.84 12.71L5.84 12.71L5.84 12.71Q6.24 12.66 6.57 12.55L6.57 12.55L6.57 12.55Q6.90 12.45 7.13 12.29L7.13 12.29L7.13 12.29Q7.36 12.12 7.43 11.87L7.43 11.87L7.48 11.96L7.48 11.96Q7.31 12.39 7.17 12.78L7.17 12.78L7.17 12.78Q7.04 13.12 6.93 13.46L6.93 13.46L6.93 13.46Q6.82 13.80 6.76 13.99L6.76 13.99L6.76 13.99Q5.47 13.99 4.34 13.90L4.34 13.90L4.34 13.90Q3.21 13.82 2.03 13.82L2.03 13.82L2.03 13.82Q1.60 13.82 1.28 13.85L1.28 13.85L1.28 13.85Q0.97 13.87 0.76 13.90L0.76 13.90L0.76 13.90Q0.50 13.94 0.32 13.99L0.32 13.99L0.32 13.82L1.13 13.71L1.13 13.71Q1.23 12.19 1.32 10.77L1.32 10.77L1.32 10.77Q1.34 10.16 1.38 9.51L1.38 9.51L1.38 9.51Q1.41 8.85 1.44 8.22L1.44 8.22L1.44 8.22Q1.47 7.59 1.48 7.01L1.48 7.01L1.48 7.01Q1.50 6.43 1.50 5.96ZM10.91 13.43L10.91 13.43L10.91 13.43Q10.72 13.57 10.54 13.72L10.54 13.72L10.54 13.72Q10.39 13.86 10.20 14.04L10.20 14.04L10.20 14.04Q10.01 14.22 9.86 14.42L9.86 14.42L9.86 14.42Q9.70 14.17 9.53 13.99L9.53 13.99L9.53 13.99Q9.37 13.80 9.21 13.68L9.21 13.68L9.21 13.68Q9.04 13.52 8.88 13.43L8.88 13.43L8.88 13.43Q9.06 13.29 9.23 13.13L9.23 13.13L9.23 13.13Q9.38 12.99 9.55 12.81L9.55 12.81L9.55 12.81Q9.72 12.63 9.86 12.42L9.86 12.42L9.86 12.42Q10.01 12.66 10.19 12.85L10.19 12.85L10.19 12.85Q10.37 13.03 10.53 13.16L10.53 13.16L10.53 13.16Q10.71 13.31 10.91 13.43ZM20.71 7.45L20.71 7.45L20.71 7.45Q20.71 5.64 21.12 4.25L21.12 4.25L21.12 4.25Q21.53 2.86 22.23 1.91L22.23 1.91L22.23 1.91Q22.93 0.97 23.85 0.48L23.85 0.48L23.85 0.48Q24.77 0 25.77 0L25.77 0L27.08 0.08L27.08 0.08Q27.45 0.08 27.58 0.04L27.58 0.04L27.58 0.04Q27.65 0.03 27.69 0L27.69 0L27.76 0L27.76 0Q27.65 0.29 27.55 0.59L27.55 0.59L27.55 0.59Q27.45 0.90 27.37 1.23L27.37 1.23L27.37 1.23Q27.29 1.57 27.23 1.96L27.23 1.96L27.23 1.96Q27.17 2.35 27.15 2.84L27.15 2.84L26.99 2.84L26.99 2.84Q26.99 2.58 26.87 2.20L26.87 2.20L26.87 2.20Q26.74 1.82 26.46 1.47L26.46 1.47L26.46 1.47Q26.18 1.12 25.70 0.88L25.70 0.88L25.70 0.88Q25.23 0.63 24.54 0.63L24.54 0.63L24.54 0.63Q23.38 0.63 22.85 2.02L22.85 2.02L22.85 2.02Q22.32 3.40 22.32 6.06L22.32 6.06L22.32 6.06Q22.32 6.78 22.41 7.57L22.41 7.57L22.41 7.57Q22.50 8.36 22.69 9.13L22.69 9.13L22.69 9.13Q22.88 9.91 23.16 10.62L23.16 10.62L23.16 10.62Q23.45 11.33 23.84 11.87L23.84 11.87L23.84 11.87Q24.23 12.40 24.73 12.73L24.73 12.73L24.73 12.73Q25.23 13.05 25.84 13.05L25.84 13.05L25.84 13.05Q26.36 13.05 26.69 12.90L26.69 12.90L26.69 12.90Q27.02 12.75 27.22 12.56L27.22 12.56L27.22 12.56Q27.44 12.33 27.54 12.05L27.54 12.05L27.69 12.21L27.69 12.21Q27.45 12.71 27.03 13.09L27.03 13.09L27.03 13.09Q26.67 13.43 26.10 13.70L26.10 13.70L26.10 13.70Q25.54 13.97 24.70 13.97L24.70 13.97L24.70 13.97Q24.32 13.97 23.87 13.86L23.87 13.86L23.87 13.86Q23.42 13.75 22.98 13.46L22.98 13.46L22.98 13.46Q22.54 13.17 22.13 12.70L22.13 12.70L22.13 12.70Q21.71 12.22 21.40 11.49L21.40 11.49L21.40 11.49Q21.08 10.77 20.89 9.77L20.89 9.77L20.89 9.77Q20.71 8.78 20.71 7.45ZM30.38 9.66L30.38 9.66L30.38 9.66Q30.38 10.08 30.54 10.59L30.54 10.59L30.54 10.59Q30.70 11.10 31.08 11.54L31.08 11.54L31.08 11.54Q31.46 11.98 32.07 12.29L32.07 12.29L32.07 12.29Q32.68 12.59 33.56 12.59L33.56 12.59L33.56 12.59Q34.02 12.59 34.29 12.46L34.29 12.46L34.29 12.46Q34.55 12.33 34.68 12.14L34.68 12.14L34.68 12.14Q34.80 11.96 34.84 11.75L34.84 11.75L34.84 11.75Q34.87 11.54 34.87 11.35L34.87 11.35L34.87 11.35Q34.87 10.75 34.64 10.16L34.64 10.16L34.64 10.16Q34.41 9.58 34.01 9.11L34.01 9.11L34.01 9.11Q33.60 8.65 33.05 8.37L33.05 8.37L33.05 8.37Q32.49 8.09 31.85 8.09L31.85 8.09L31.85 8.09Q31.43 8.09 31.15 8.25L31.15 8.25L31.15 8.25Q30.87 8.41 30.70 8.66L30.70 8.66L30.70 8.66Q30.52 8.90 30.45 9.18L30.45 9.18L30.45 9.18Q30.38 9.45 30.38 9.66ZM33.46 7L33.46 7L33.46 7Q33.88 7 34.36 7.18L34.36 7.18L34.36 7.18Q34.85 7.36 35.26 7.73L35.26 7.73L35.26 7.73Q35.67 8.09 35.94 8.66L35.94 8.66L35.94 8.66Q36.20 9.23 36.20 9.98L36.20 9.98L36.20 9.98Q36.20 10.42 36.00 10.88L36.00 10.88L36.00 10.88Q35.80 11.34 35.47 11.79L35.47 11.79L35.47 11.79Q35.14 12.24 34.71 12.63L34.71 12.63L34.71 12.63Q34.29 13.03 33.83 13.34L33.83 13.34L33.83 13.34Q33.38 13.64 32.92 13.82L32.92 13.82L32.92 13.82Q32.47 14 32.09 14L32.09 14L32.09 14Q31.51 14 30.99 13.76L30.99 13.76L30.99 13.76Q30.46 13.52 30.06 13.12L30.06 13.12L30.06 13.12Q29.65 12.71 29.41 12.19L29.41 12.19L29.41 12.19Q29.16 11.66 29.16 11.07L29.16 11.07L29.16 11.07Q29.16 10.28 29.60 9.54L29.60 9.54L29.60 9.54Q30.03 8.81 30.67 8.24L30.67 8.24L30.67 8.24Q31.32 7.67 32.07 7.34L32.07 7.34L32.07 7.34Q32.82 7 33.46 7ZM39.56-6.83L39.56-6.83L39.56-6.83Q39.40-6.37 39.30-5.64L39.30-5.64L39.30-5.64Q39.21-4.90 39.17-4.00L39.17-4.00L39.17-4.00Q39.13-3.09 39.12-2.07L39.12-2.07L39.12-2.07Q39.12-1.04 39.12 0.01L39.12 0.01L39.12 0.01Q39.12 0.71 39.09 1.80L39.09 1.80L39.09 1.80Q39.07 2.88 39.05 4.11L39.05 4.11L39.05 4.11Q39.03 5.33 39.02 6.59L39.02 6.59L39.02 6.59Q39.00 7.84 39.01 8.90L39.01 8.90L39.01 8.90Q39.02 9.95 39.05 10.70L39.05 10.70L39.05 10.70Q39.09 11.45 39.17 11.65L39.17 11.65L39.17 11.65Q39.34 12.03 39.62 12.36L39.62 12.36L39.62 12.36Q39.90 12.68 40.43 12.73L40.43 12.73L40.43 12.73Q39.90 13.12 39.49 13.44L39.49 13.44L39.49 13.44Q39.09 13.76 38.75 14.10L38.75 14.10L38.75 14.10Q38.49 13.96 38.28 13.74L38.28 13.74L38.28 13.74Q38.07 13.52 37.92 13.29L37.92 13.29L37.92 13.29Q37.77 13.05 37.68 12.82L37.68 12.82L37.68 12.82Q37.59 12.59 37.58 12.40L37.58 12.40L37.58 12.40Q37.56 12.05 37.56 11.19L37.56 11.19L37.56 11.19Q37.56 10.33 37.57 9.19L37.57 9.19L37.57 9.19Q37.58 8.05 37.60 6.73L37.60 6.73L37.60 6.73Q37.62 5.42 37.63 4.16L37.63 4.16L37.63 4.16Q37.65 2.90 37.65 1.81L37.65 1.81L37.65 1.81Q37.66 0.71 37.66 0.01L37.66 0.01L37.66 0.01Q37.66-1.55 37.67-2.70L37.67-2.70L37.67-2.70Q37.67-3.84 37.65-4.66L37.65-4.66L37.65-4.66Q37.63-5.49 37.58-6.04L37.58-6.04L37.58-6.04Q37.53-6.59 37.44-6.99L37.44-6.99L37.44-6.99Q37.86-6.99 38.30-7.20L38.30-7.20L38.30-7.20Q38.75-7.41 39.22-7.71L39.22-7.71L39.22-7.71Q39.69-8.02 40.19-8.39L40.19-8.39L40.19-8.39Q40.68-8.75 41.20-9.06L41.20-9.06L41.20-9.06Q41.72-9.37 42.25-9.58L42.25-9.58L42.25-9.58Q42.78-9.79 43.33-9.79L43.33-9.79L43.33-9.79Q44.10-9.79 44.64-9.54L44.64-9.54L44.64-9.54Q45.18-9.30 45.51-8.90L45.51-8.90L45.51-8.90Q45.85-8.50 46.00-7.99L46.00-7.99L46.00-7.99Q46.16-7.48 46.16-6.93L46.16-6.93L46.16-6.93Q46.16-5.61 45.74-4.50L45.74-4.50L45.74-4.50Q45.32-3.39 44.63-2.46L44.63-2.46L44.63-2.46Q43.93-1.54 43.05-0.79L43.05-0.79L43.05-0.79Q42.17-0.04 41.24 0.55L41.24 0.55L41.24 0.55Q39.09 1.92 36.34 2.77L36.34 2.77L36.34 2.77Q39.05 1.90 41.17 0.53L41.17 0.53L41.17 0.53Q42.07-0.06 42.94-0.80L42.94-0.80L42.94-0.80Q43.81-1.55 44.49-2.48L44.49-2.48L44.49-2.48Q45.18-3.40 45.59-4.52L45.59-4.52L45.59-4.52Q46.00-5.63 46.00-6.93L46.00-6.93L46.00-6.93Q46.00-7.45 45.88-7.94L45.88-7.94L45.88-7.94Q45.75-8.43 45.44-8.81L45.44-8.81L45.44-8.81Q45.14-9.18 44.62-9.41L44.62-9.41L44.62-9.41Q44.10-9.63 43.33-9.63L43.33-9.63L43.33-9.63Q42.53-9.63 41.87-9.31L41.87-9.31L41.87-9.31Q41.20-8.99 40.72-8.53L40.72-8.53L40.72-8.53Q40.24-8.08 39.94-7.60L39.94-7.60L39.94-7.60Q39.63-7.13 39.56-6.83ZM43.99-6.83L43.99-6.83L43.99-6.83Q43.82-6.37 43.73-5.64L43.73-5.64L43.73-5.64Q43.64-4.90 43.60-4.00L43.60-4.00L43.60-4.00Q43.55-3.09 43.55-2.07L43.55-2.07L43.55-2.07Q43.54-1.04 43.54 0.01L43.54 0.01L43.54 0.01Q43.54 0.71 43.52 1.80L43.52 1.80L43.52 1.80Q43.50 2.88 43.48 4.11L43.48 4.11L43.48 4.11Q43.46 5.33 43.44 6.59L43.44 6.59L43.44 6.59Q43.43 7.84 43.44 8.90L43.44 8.90L43.44 8.90Q43.44 9.95 43.48 10.70L43.48 10.70L43.48 10.70Q43.51 11.45 43.60 11.65L43.60 11.65L43.60 11.65Q43.76 12.03 44.04 12.36L44.04 12.36L44.04 12.36Q44.32 12.68 44.86 12.73L44.86 12.73L44.86 12.73Q44.32 13.12 43.92 13.44L43.92 13.44L43.92 13.44Q43.51 13.76 43.18 14.10L43.18 14.10L43.18 14.10Q42.91 13.96 42.70 13.74L42.70 13.74L42.70 13.74Q42.49 13.52 42.34 13.29L42.34 13.29L42.34 13.29Q42.20 13.05 42.10 12.82L42.10 12.82L42.10 12.82Q42.01 12.59 42 12.40L42 12.40L42 12.40Q41.99 12.05 41.99 11.19L41.99 11.19L41.99 11.19Q41.99 10.33 41.99 9.19L41.99 9.19L41.99 9.19Q42 8.05 42.02 6.73L42.02 6.73L42.02 6.73Q42.04 5.42 42.06 4.16L42.06 4.16L42.06 4.16Q42.07 2.90 42.08 1.81L42.08 1.81L42.08 1.81Q42.08 0.71 42.08 0.01L42.08 0.01L42.08 0.01Q42.08-1.55 42.09-2.70L42.09-2.70L42.09-2.70Q42.10-3.84 42.08-4.66L42.08-4.66L42.08-4.66Q42.06-5.49 42.01-6.04L42.01-6.04L42.01-6.04Q41.96-6.59 41.86-6.99L41.86-6.99L41.86-6.99Q42.28-6.99 42.73-7.20L42.73-7.20L42.73-7.20Q43.18-7.41 43.64-7.71L43.64-7.71L43.64-7.71Q44.11-8.02 44.61-8.39L44.61-8.39L44.61-8.39Q45.11-8.75 45.63-9.06L45.63-9.06L45.63-9.06Q46.14-9.37 46.68-9.58L46.68-9.58L46.68-9.58Q47.21-9.79 47.75-9.79L47.75-9.79L47.75-9.79Q48.52-9.79 49.06-9.54L49.06-9.54L49.06-9.54Q49.60-9.30 49.94-8.90L49.94-8.90L49.94-8.90Q50.27-8.50 50.43-7.99L50.43-7.99L50.43-7.99Q50.58-7.48 50.58-6.93L50.58-6.93L50.58-6.93Q50.58-5.61 50.16-4.50L50.16-4.50L50.16-4.50Q49.74-3.39 49.05-2.46L49.05-2.46L49.05-2.46Q48.36-1.54 47.47-0.79L47.47-0.79L47.47-0.79Q46.59-0.04 45.67 0.55L45.67 0.55L45.67 0.55Q43.51 1.92 40.77 2.77L40.77 2.77L40.77 2.77Q43.47 1.90 45.60 0.53L45.60 0.53L45.60 0.53Q46.49-0.06 47.36-0.80L47.36-0.80L47.36-0.80Q48.23-1.55 48.92-2.48L48.92-2.48L48.92-2.48Q49.60-3.40 50.02-4.52L50.02-4.52L50.02-4.52Q50.43-5.63 50.43-6.93L50.43-6.93L50.43-6.93Q50.43-7.45 50.30-7.94L50.30-7.94L50.30-7.94Q50.18-8.43 49.87-8.81L49.87-8.81L49.87-8.81Q49.56-9.18 49.04-9.41L49.04-9.41L49.04-9.41Q48.52-9.63 47.75-9.63L47.75-9.63L47.75-9.63Q46.96-9.63 46.29-9.31L46.29-9.31L46.29-9.31Q45.63-8.99 45.14-8.53L45.14-8.53L45.14-8.53Q44.66-8.08 44.36-7.60L44.36-7.60L44.36-7.60Q44.06-7.13 43.99-6.83ZM48.71 5.24L48.71 5.24L48.71 5.24Q48.52 5.38 48.34 5.53L48.34 5.53L48.34 5.53Q48.19 5.67 48.00 5.85L48.00 5.85L48.00 5.85Q47.81 6.03 47.66 6.23L47.66 6.23L47.66 6.23Q47.50 5.98 47.33 5.80L47.33 5.80L47.33 5.80Q47.17 5.61 47.01 5.49L47.01 5.49L47.01 5.49Q46.84 5.33 46.68 5.24L46.68 5.24L46.68 5.24Q46.86 5.10 47.03 4.94L47.03 4.94L47.03 4.94Q47.18 4.80 47.35 4.62L47.35 4.62L47.35 4.62Q47.52 4.44 47.66 4.23L47.66 4.23L47.66 4.23Q47.81 4.47 47.99 4.65L47.99 4.65L47.99 4.65Q48.17 4.84 48.33 4.97L48.33 4.97L48.33 4.97Q48.51 5.12 48.71 5.24ZM46.45 8.12L46.45 8.12L46.45 8.12Q46.79 7.98 47.09 7.88L47.09 7.88L47.09 7.88Q47.39 7.77 47.66 7.65L47.66 7.65L47.66 7.65Q47.94 7.53 48.20 7.38L48.20 7.38L48.20 7.38Q48.45 7.24 48.71 7.01L48.71 7.01L48.71 7.01Q48.82 7.39 48.80 7.93L48.80 7.93L48.80 7.93Q48.79 8.47 48.74 9.06L48.74 9.06L48.74 9.06Q48.69 9.66 48.68 10.26L48.68 10.26L48.68 10.26Q48.66 10.86 48.78 11.35L48.78 11.35L48.78 11.35Q48.90 11.84 49.20 12.17L49.20 12.17L49.20 12.17Q49.50 12.50 50.11 12.56L50.11 12.56L50.11 12.56Q49.50 12.95 49.08 13.30L49.08 13.30L49.08 13.30Q48.65 13.65 48.23 14.01L48.23 14.01L48.23 14.01Q48.10 13.96 47.95 13.89L47.95 13.89L47.95 13.89Q47.80 13.82 47.66 13.69L47.66 13.69L47.66 13.69Q47.52 13.55 47.41 13.35L47.41 13.35L47.41 13.35Q47.31 13.15 47.29 12.82L47.29 12.82L47.29 12.82Q47.31 11.87 47.33 11.01L47.33 11.01L47.33 11.01Q47.36 10.15 47.31 9.50L47.31 9.50L47.31 9.50Q47.25 8.85 47.06 8.48L47.06 8.48L47.06 8.48Q46.87 8.11 46.45 8.12ZM56.42 12.49L56.42 12.49L56.42 12.49Q56.83 12.49 57.18 12.38L57.18 12.38L57.18 12.38Q57.54 12.28 57.81 12.14L57.81 12.14L57.81 12.14Q58.11 11.98 58.38 11.79L58.38 11.79L58.38 11.79Q58.00 12.42 57.47 12.91L57.47 12.91L57.47 12.91Q57.02 13.33 56.34 13.67L56.34 13.67L56.34 13.67Q55.66 14.01 54.77 14.01L54.77 14.01L54.77 14.01Q54.12 14.01 53.54 13.79L53.54 13.79L53.54 13.79Q52.95 13.57 52.49 13.15L52.49 13.15L52.49 13.15Q52.04 12.73 51.77 12.12L51.77 12.12L51.77 12.12Q51.51 11.51 51.51 10.75L51.51 10.75L51.51 10.75Q51.51 10.07 51.72 9.54L51.72 9.54L51.72 9.54Q51.94 9.02 52.29 8.62L52.29 8.62L52.29 8.62Q52.64 8.23 53.07 7.97L53.07 7.97L53.07 7.97Q53.51 7.71 53.93 7.55L53.93 7.55L53.93 7.55Q55.27 7 55.76 7L55.76 7L55.76 7Q56.28 7 56.66 7.17L56.66 7.17L56.66 7.17Q57.05 7.35 57.33 7.56L57.33 7.56L57.33 7.56Q57.64 7.81 57.88 8.12L57.88 8.12L53.26 9.98L53.26 9.98Q53.35 10.57 53.54 11.03L53.54 11.03L53.54 11.03Q53.72 11.49 54.07 11.82L54.07 11.82L54.07 11.82Q54.42 12.14 54.98 12.31L54.98 12.31L54.98 12.31Q55.54 12.49 56.42 12.49ZM54.15 7.81L54.15 7.81L54.15 7.81Q53.96 7.81 53.77 7.92L53.77 7.92L53.77 7.92Q53.59 8.02 53.45 8.19L53.45 8.19L53.45 8.19Q53.30 8.36 53.22 8.57L53.22 8.57L53.22 8.57Q53.14 8.78 53.16 8.99L53.16 8.99L53.16 8.99Q53.16 9.21 53.16 9.42L53.16 9.42L53.16 9.42Q53.17 9.63 53.21 9.84L53.21 9.84L55.57 8.76L55.57 8.76Q55.43 8.50 55.22 8.29L55.22 8.29L55.22 8.29Q55.03 8.11 54.77 7.96L54.77 7.96L54.77 7.96Q54.50 7.81 54.15 7.81ZM64.02 7.06L64.02 7.06L64.02 7.06Q64.23 7.06 64.47 7.07L64.47 7.07L64.47 7.07Q64.71 7.08 64.86 7.15L64.86 7.15L64.86 7.15Q64.71 7.36 64.57 7.69L64.57 7.69L64.57 7.69Q64.43 8.01 64.32 8.30L64.32 8.30L64.32 8.30Q64.18 8.67 64.06 9.03L64.06 9.03L64.06 9.03Q63.97 8.97 63.81 8.92L63.81 8.92L63.81 8.92Q63.69 8.88 63.50 8.83L63.50 8.83L63.50 8.83Q63.31 8.79 63.04 8.79L63.04 8.79L63.04 8.79Q62.62 8.79 62.35 9.02L62.35 9.02L62.35 9.02Q62.08 9.25 61.91 9.63L61.91 9.63L61.91 9.63Q61.74 10.00 61.65 10.44L61.65 10.44L61.65 10.44Q61.56 10.89 61.52 11.31L61.52 11.31L61.52 11.31Q61.52 12.12 61.54 12.57L61.54 12.57L61.54 12.57Q61.56 13.02 61.56 13.30L61.56 13.30L61.56 13.30Q61.38 13.34 61.16 13.42L61.16 13.42L61.16 13.42Q60.94 13.50 60.72 13.60L60.72 13.60L60.72 13.60Q60.49 13.71 60.28 13.81L60.28 13.81L60.28 13.81Q60.06 13.92 59.89 14.01L59.89 14.01L59.89 14.01Q59.96 13.38 60.01 12.71L60.01 12.71L60.01 12.71Q60.06 12.04 60.08 11.40L60.08 11.40L60.08 11.40Q60.10 10.75 60.08 10.17L60.08 10.17L60.08 10.17Q60.06 9.59 60.00 9.15L60.00 9.15L60.00 9.15Q59.93 8.71 59.84 8.43L59.84 8.43L59.84 8.43Q59.74 8.16 59.60 8.13L59.60 8.13L59.60 8.13Q59.53 8.12 59.44 8.12L59.44 8.12L59.44 8.12Q59.36 8.12 59.28 8.12L59.28 8.12L59.28 8.12Q59.18 8.12 59.08 8.13L59.08 8.13L59.08 8.13Q59.46 8.01 59.84 7.84L59.84 7.84L59.84 7.84Q60.16 7.69 60.55 7.48L60.55 7.48L60.55 7.48Q60.94 7.28 61.31 7.01L61.31 7.01L61.31 7.01Q61.35 7.20 61.38 7.51L61.38 7.51L61.38 7.51Q61.40 7.83 61.43 8.22L61.43 8.22L61.43 8.22Q61.46 8.62 61.47 9.07L61.47 9.07L61.47 9.07Q61.49 9.52 61.52 9.95L61.52 9.95L61.52 9.95Q61.73 9.48 62.01 8.97L62.01 8.97L62.01 8.97Q62.29 8.46 62.61 8.03L62.61 8.03L62.61 8.03Q62.93 7.60 63.29 7.33L63.29 7.33L63.29 7.33Q63.66 7.06 64.02 7.06ZM76.80 7.53L76.80 7.53L76.80 7.53Q76.79 7.57 76.87 7.62L76.87 7.62L76.87 7.62Q76.94 7.64 77.12 7.67L77.12 7.67L77.12 7.67Q77.29 7.70 77.66 7.70L77.66 7.70L77.66 7.70Q78.55 7.70 79.08 7.35L79.08 7.35L79.08 7.35Q79.60 7 79.88 6.47L79.88 6.47L79.88 6.47Q80.16 5.94 80.25 5.29L80.25 5.29L80.25 5.29Q80.33 4.63 80.33 4.05L80.33 4.05L80.33 4.05Q80.33 3.07 80.09 2.35L80.09 2.35L80.09 2.35Q79.86 1.64 79.48 1.18L79.48 1.18L79.48 1.18Q79.11 0.73 78.68 0.51L78.68 0.51L78.68 0.51Q78.25 0.29 77.87 0.29L77.87 0.29L77.87 0.29Q77.53 0.29 77.35 0.35L77.35 0.35L77.35 0.35Q77.17 0.41 77.07 0.48L77.07 0.48L77.07 0.48Q76.96 0.55 76.94 0.64L76.94 0.64L76.94 0.64Q76.89 1.47 76.86 2.37L76.86 2.37L76.86 2.37Q76.83 3.26 76.82 4.15L76.82 4.15L76.82 4.15Q76.80 5.04 76.80 5.90L76.80 5.90L76.80 5.90Q76.80 6.76 76.80 7.53ZM75.45 6.57L75.45 6.57L75.45 6.57Q75.45 5.95 75.42 5.26L75.42 5.26L75.42 5.26Q75.39 4.56 75.35 3.87L75.35 3.87L75.35 3.87Q75.31 3.18 75.25 2.53L75.25 2.53L75.25 2.53Q75.19 1.89 75.12 1.40L75.12 1.40L75.12 1.40Q75.05 0.91 74.98 0.61L74.98 0.61L74.98 0.61Q74.91 0.31 74.86 0.29L74.86 0.29L74.86 0.29Q74.72 0.27 74.57 0.24L74.57 0.24L74.57 0.24Q74.42 0.22 74.28 0.20L74.28 0.20L74.28 0.20Q74.13 0.17 73.96 0.14L73.96 0.14L73.96 0.01L73.96 0.01Q74.21 0.06 74.51 0.08L74.51 0.08L74.51 0.08Q74.76 0.11 75.09 0.13L75.09 0.13L75.09 0.13Q75.42 0.14 75.78 0.14L75.78 0.14L75.78 0.14Q76.13 0.14 76.42 0.12L76.42 0.12L76.42 0.12Q76.71 0.10 77.01 0.08L77.01 0.08L77.01 0.08Q77.32 0.06 77.71 0.04L77.71 0.04L77.71 0.04Q78.09 0.01 78.64 0.01L78.64 0.01L78.64 0.01Q79.49 0.01 80.18 0.34L80.18 0.34L80.18 0.34Q80.86 0.67 81.35 1.20L81.35 1.20L81.35 1.20Q81.83 1.72 82.08 2.36L82.08 2.36L82.08 2.36Q82.33 3.00 82.33 3.63L82.33 3.63L82.33 3.63Q82.33 4.21 82.19 4.70L82.19 4.70L82.19 4.70Q82.05 5.18 81.83 5.56L81.83 5.56L81.83 5.56Q81.61 5.95 81.31 6.25L81.31 6.25L81.31 6.25Q81.02 6.55 80.72 6.78L80.72 6.78L80.72 6.78Q80.01 7.31 79.11 7.57L79.11 7.57L79.11 7.57Q79.86 7.57 80.41 8.04L80.41 8.04L80.41 8.04Q80.96 8.50 81.40 9.19L81.40 9.19L81.40 9.19Q81.83 9.88 82.20 10.70L82.20 10.70L82.20 10.70Q82.57 11.52 82.94 12.24L82.94 12.24L82.94 12.24Q83.31 12.95 83.74 13.45L83.74 13.45L83.74 13.45Q84.17 13.94 84.74 14L84.74 14L84.74 14Q83.83 14 83.20 13.87L83.20 13.87L83.20 13.87Q82.56 13.73 82.12 13.49L82.12 13.49L82.12 13.49Q81.68 13.24 81.38 12.90L81.38 12.90L81.38 12.90Q81.07 12.56 80.84 12.14L80.84 12.14L80.84 12.14Q80.60 11.73 80.37 11.26L80.37 11.26L80.37 11.26Q80.15 10.79 79.84 10.29L79.84 10.29L79.84 10.29Q79.35 9.48 79.07 8.99L79.07 8.99L79.07 8.99Q78.79 8.50 78.52 8.25L78.52 8.25L78.52 8.25Q78.25 7.99 77.87 7.92L77.87 7.92L77.87 7.92Q77.49 7.84 76.80 7.84L76.80 7.84L76.80 7.84Q76.80 8.72 76.87 9.76L76.87 9.76L76.87 9.76Q76.94 10.79 77.03 11.68L77.03 11.68L77.03 11.68Q77.13 12.71 77.27 13.73L77.27 13.73L78.22 13.86L78.22 14L77.66 13.93L77.66 13.93Q77.41 13.90 77.06 13.88L77.06 13.88L77.06 13.88Q76.72 13.86 76.34 13.86L76.34 13.86L76.34 13.86Q75.84 13.86 75.46 13.88L75.46 13.88L75.46 13.88Q75.08 13.90 74.83 13.93L74.83 13.93L74.83 13.93Q74.54 13.97 74.34 14L74.34 14L74.34 13.90L74.34 13.90Q74.47 13.87 74.61 13.85L74.61 13.85L74.61 13.85Q74.72 13.82 74.86 13.79L74.86 13.79L74.86 13.79Q75.00 13.76 75.15 13.73L75.15 13.73L75.15 13.73Q75.38 13.71 75.41 11.97L75.41 11.97L75.41 11.97Q75.45 10.23 75.45 6.57ZM89.43 12.49L89.43 12.49L89.43 12.49Q89.84 12.49 90.20 12.38L90.20 12.38L90.20 12.38Q90.55 12.28 90.82 12.14L90.82 12.14L90.82 12.14Q91.13 11.98 91.39 11.79L91.39 11.79L91.39 11.79Q91.01 12.42 90.48 12.91L90.48 12.91L90.48 12.91Q90.03 13.33 89.36 13.67L89.36 13.67L89.36 13.67Q88.68 14.01 87.78 14.01L87.78 14.01L87.78 14.01Q87.14 14.01 86.55 13.79L86.55 13.79L86.55 13.79Q85.96 13.57 85.50 13.15L85.50 13.15L85.50 13.15Q85.05 12.73 84.78 12.12L84.78 12.12L84.78 12.12Q84.52 11.51 84.52 10.75L84.52 10.75L84.52 10.75Q84.52 10.07 84.73 9.54L84.73 9.54L84.73 9.54Q84.95 9.02 85.30 8.62L85.30 8.62L85.30 8.62Q85.65 8.23 86.09 7.97L86.09 7.97L86.09 7.97Q86.52 7.71 86.94 7.55L86.94 7.55L86.94 7.55Q88.28 7 88.77 7L88.77 7L88.77 7Q89.29 7 89.68 7.17L89.68 7.17L89.68 7.17Q90.06 7.35 90.34 7.56L90.34 7.56L90.34 7.56Q90.65 7.81 90.89 8.12L90.89 8.12L86.27 9.98L86.27 9.98Q86.37 10.57 86.55 11.03L86.55 11.03L86.55 11.03Q86.73 11.49 87.08 11.82L87.08 11.82L87.08 11.82Q87.43 12.14 87.99 12.31L87.99 12.31L87.99 12.31Q88.55 12.49 89.43 12.49ZM87.16 7.81L87.16 7.81L87.16 7.81Q86.97 7.81 86.79 7.92L86.79 7.92L86.79 7.92Q86.60 8.02 86.46 8.19L86.46 8.19L86.46 8.19Q86.31 8.36 86.23 8.57L86.23 8.57L86.23 8.57Q86.16 8.78 86.17 8.99L86.17 8.99L86.17 8.99Q86.17 9.21 86.18 9.42L86.18 9.42L86.18 9.42Q86.18 9.63 86.23 9.84L86.23 9.84L88.58 8.76L88.58 8.76Q88.44 8.50 88.23 8.29L88.23 8.29L88.23 8.29Q88.05 8.11 87.78 7.96L87.78 7.96L87.78 7.96Q87.51 7.81 87.16 7.81ZM98.97 9.52L98.97 9.52L98.97 9.52Q99.08 9.79 99.29 10.30L99.29 10.30L99.29 10.30Q99.50 10.82 99.73 11.35L99.73 11.35L99.73 11.35Q99.96 11.89 100.18 12.29L100.18 12.29L100.18 12.29Q100.41 12.70 100.56 12.73L100.56 12.73L100.56 12.73Q100.14 12.96 99.69 13.30L99.69 13.30L99.69 13.30Q99.23 13.64 98.90 14L98.90 14L98.90 14Q98.83 13.69 98.64 13.14L98.64 13.14L98.64 13.14Q98.46 12.59 98.15 11.93L98.15 11.93L98.15 11.93Q97.89 12.19 97.48 12.55L97.48 12.55L97.48 12.55Q97.08 12.91 96.61 13.23L96.61 13.23L96.61 13.23Q96.15 13.55 95.66 13.78L95.66 13.78L95.66 13.78Q95.16 14 94.71 14L94.71 14L94.71 14Q94.39 14 94.05 13.91L94.05 13.91L94.05 13.91Q93.70 13.82 93.42 13.64L93.42 13.64L93.42 13.64Q93.14 13.47 92.97 13.22L92.97 13.22L92.97 13.22Q92.79 12.96 92.79 12.64L92.79 12.64L92.79 12.64Q92.79 12.25 93.20 11.80L93.20 11.80L93.20 11.80Q93.60 11.35 94.21 10.91L94.21 10.91L94.21 10.91Q94.81 10.47 95.51 10.05L95.51 10.05L95.51 10.05Q96.21 9.63 96.80 9.27L96.80 9.27L96.80 9.27Q96.36 8.72 95.98 8.48L95.98 8.48L95.98 8.48Q95.59 8.23 95.13 8.23L95.13 8.23L95.13 8.23Q94.93 8.23 94.62 8.34L94.62 8.34L94.62 8.34Q94.30 8.46 94.01 8.60L94.01 8.60L94.01 8.60Q93.65 8.75 93.28 8.95L93.28 8.95L93.28 8.95Q94.07 8.41 94.79 7.98L94.79 7.98L94.79 7.98Q95.10 7.80 95.42 7.63L95.42 7.63L95.42 7.63Q95.75 7.46 96.05 7.32L96.05 7.32L96.05 7.32Q96.35 7.18 96.61 7.10L96.61 7.10L96.61 7.10Q96.87 7.01 97.05 7.01L97.05 7.01L97.05 7.01Q97.40 7.01 97.70 7.31L97.70 7.31L97.70 7.31Q98 7.62 98.25 8.03L98.25 8.03L98.25 8.03Q98.49 8.44 98.67 8.86L98.67 8.86L98.67 8.86Q98.84 9.28 98.97 9.52ZM96.22 12.64L96.22 12.64L96.22 12.64Q96.56 12.64 96.87 12.54L96.87 12.54L96.87 12.54Q97.17 12.45 97.41 12.26L97.41 12.26L97.41 12.26Q97.64 12.08 97.78 11.83L97.78 11.83L97.78 11.83Q97.92 11.58 97.92 11.28L97.92 11.28L97.92 11.28Q97.80 11.10 97.68 10.88L97.68 10.88L97.68 10.88Q97.55 10.67 97.44 10.47L97.44 10.47L97.44 10.47Q97.33 10.22 97.21 9.99L97.21 9.99L97.21 9.99Q97.09 9.76 96.96 9.60L96.96 9.60L96.96 9.60Q96.66 9.72 96.22 9.92L96.22 9.92L96.22 9.92Q95.77 10.12 95.37 10.39L95.37 10.39L95.37 10.39Q94.96 10.67 94.67 10.99L94.67 10.99L94.67 10.99Q94.39 11.31 94.39 11.66L94.39 11.66L94.39 11.66Q94.39 11.86 94.53 12.03L94.53 12.03L94.53 12.03Q94.68 12.21 94.93 12.34L94.93 12.34L94.93 12.34Q95.17 12.47 95.51 12.56L95.51 12.56L95.51 12.56Q95.84 12.64 96.22 12.64ZM103.92-6.83L103.92-6.83L103.92-6.83Q103.75-6.37 103.66-5.64L103.66-5.64L103.66-5.64Q103.57-4.90 103.53-4.00L103.53-4.00L103.53-4.00Q103.49-3.09 103.48-2.07L103.48-2.07L103.48-2.07Q103.47-1.04 103.47 0.01L103.47 0.01L103.47 0.01Q103.47 0.71 103.45 1.80L103.45 1.80L103.45 1.80Q103.43 2.88 103.41 4.11L103.41 4.11L103.41 4.11Q103.39 5.33 103.38 6.59L103.38 6.59L103.38 6.59Q103.36 7.84 103.37 8.90L103.37 8.90L103.37 8.90Q103.38 9.95 103.41 10.70L103.41 10.70L103.41 10.70Q103.45 11.45 103.53 11.65L103.53 11.65L103.53 11.65Q103.70 12.03 103.98 12.36L103.98 12.36L103.98 12.36Q104.26 12.68 104.79 12.73L104.79 12.73L104.79 12.73Q104.26 13.12 103.85 13.44L103.85 13.44L103.85 13.44Q103.45 13.76 103.11 14.10L103.11 14.10L103.11 14.10Q102.84 13.96 102.63 13.74L102.63 13.74L102.63 13.74Q102.42 13.52 102.28 13.29L102.28 13.29L102.28 13.29Q102.13 13.05 102.04 12.82L102.04 12.82L102.04 12.82Q101.95 12.59 101.93 12.40L101.93 12.40L101.93 12.40Q101.92 12.05 101.92 11.19L101.92 11.19L101.92 11.19Q101.92 10.33 101.93 9.19L101.93 9.19L101.93 9.19Q101.93 8.05 101.95 6.73L101.95 6.73L101.95 6.73Q101.98 5.42 101.99 4.16L101.99 4.16L101.99 4.16Q102.00 2.90 102.01 1.81L102.01 1.81L102.01 1.81Q102.02 0.71 102.02 0.01L102.02 0.01L102.02 0.01Q102.02-1.55 102.03-2.70L102.03-2.70L102.03-2.70Q102.03-3.84 102.01-4.66L102.01-4.66L102.01-4.66Q101.99-5.49 101.94-6.04L101.94-6.04L101.94-6.04Q101.89-6.59 101.79-6.99L101.79-6.99L101.79-6.99Q102.21-6.99 102.66-7.20L102.66-7.20L102.66-7.20Q103.11-7.41 103.58-7.71L103.58-7.71L103.58-7.71Q104.05-8.02 104.55-8.39L104.55-8.39L104.55-8.39Q105.04-8.75 105.56-9.06L105.56-9.06L105.56-9.06Q106.08-9.37 106.61-9.58L106.61-9.58L106.61-9.58Q107.14-9.79 107.69-9.79L107.69-9.79L107.69-9.79Q108.46-9.79 109.00-9.54L109.00-9.54L109.00-9.54Q109.54-9.30 109.87-8.90L109.87-8.90L109.87-8.90Q110.21-8.50 110.36-7.99L110.36-7.99L110.36-7.99Q110.52-7.48 110.52-6.93L110.52-6.93L110.52-6.93Q110.52-5.61 110.10-4.50L110.10-4.50L110.10-4.50Q109.68-3.39 108.98-2.46L108.98-2.46L108.98-2.46Q108.29-1.54 107.41-0.79L107.41-0.79L107.41-0.79Q106.53-0.04 105.60 0.55L105.60 0.55L105.60 0.55Q103.45 1.92 100.70 2.77L100.70 2.77L100.70 2.77Q103.40 1.90 105.53 0.53L105.53 0.53L105.53 0.53Q106.43-0.06 107.30-0.80L107.30-0.80L107.30-0.80Q108.16-1.55 108.85-2.48L108.85-2.48L108.85-2.48Q109.54-3.40 109.95-4.52L109.95-4.52L109.95-4.52Q110.36-5.63 110.36-6.93L110.36-6.93L110.36-6.93Q110.36-7.45 110.24-7.94L110.24-7.94L110.24-7.94Q110.11-8.43 109.80-8.81L109.80-8.81L109.80-8.81Q109.49-9.18 108.98-9.41L108.98-9.41L108.98-9.41Q108.46-9.63 107.69-9.63L107.69-9.63L107.69-9.63Q106.89-9.63 106.23-9.31L106.23-9.31L106.23-9.31Q105.56-8.99 105.08-8.53L105.08-8.53L105.08-8.53Q104.59-8.08 104.29-7.60L104.29-7.60L104.29-7.60Q103.99-7.13 103.92-6.83ZM116.28 5.96L116.28 5.96L116.28 5.96Q116.28 4.82 116.19 3.79L116.19 3.79L116.19 3.79Q116.09 2.76 115.98 1.97L115.98 1.97L115.98 1.97Q115.84 1.06 115.68 0.29L115.68 0.29L114.79 0.21L114.79 0.01L114.79 0.01Q115.12 0.06 115.61 0.08L115.61 0.08L115.61 0.08Q116.02 0.11 116.65 0.13L116.65 0.13L116.65 0.13Q117.28 0.15 118.12 0.15L118.12 0.15L118.12 0.15Q119.00 0.15 119.85 0.12L119.85 0.12L119.85 0.12Q120.71 0.08 121.73 0.01L121.73 0.01L121.73 0.01Q121.49 0.46 121.31 1.16L121.31 1.16L121.31 1.16Q121.13 1.86 121.10 2.53L121.10 2.53L121.10 2.53Q120.96 1.97 120.63 1.55L120.63 1.55L120.63 1.55Q120.30 1.13 119.84 0.87L119.84 0.87L119.84 0.87Q119.38 0.60 118.83 0.47L118.83 0.47L118.83 0.47Q118.27 0.34 117.70 0.34L117.70 0.34L117.70 0.34Q117.61 1.20 117.59 2.21L117.59 2.21L117.59 2.21Q117.57 3.22 117.57 4.10L117.57 4.10L117.57 4.10Q117.57 5.12 117.61 6.15L117.61 6.15L117.61 6.15Q118.23 6.13 118.86 6.05L118.86 6.05L118.86 6.05Q119.39 5.98 120.02 5.82L120.02 5.82L120.02 5.82Q120.64 5.67 121.18 5.39L121.18 5.39L121.18 5.39Q121.11 5.85 121.09 6.29L121.09 6.29L121.09 6.29Q121.07 6.72 121.07 7.06L121.07 7.06L121.07 7.06Q121.07 7.45 121.10 7.81L121.10 7.81L120.96 7.76L120.96 7.76Q120.97 7.32 120.67 7.07L120.67 7.07L120.67 7.07Q120.36 6.82 119.87 6.68L119.87 6.68L119.87 6.68Q119.38 6.55 118.78 6.52L118.78 6.52L118.78 6.52Q118.17 6.50 117.61 6.51L117.61 6.51L117.61 6.51Q117.59 6.93 117.58 7.43L117.58 7.43L117.58 7.43Q117.57 7.92 117.58 8.43L117.58 8.43L117.58 8.43Q117.59 8.95 117.60 9.46L117.60 9.46L117.60 9.46Q117.61 9.98 117.64 10.46L117.64 10.46L117.64 10.46Q117.70 11.58 117.75 12.73L117.75 12.73L117.75 12.73Q118.90 12.84 119.84 12.78L119.84 12.78L119.84 12.78Q120.23 12.77 120.63 12.71L120.63 12.71L120.63 12.71Q121.03 12.66 121.36 12.55L121.36 12.55L121.36 12.55Q121.69 12.45 121.92 12.29L121.92 12.29L121.92 12.29Q122.15 12.12 122.22 11.87L122.22 11.87L122.26 11.96L122.26 11.96Q122.09 12.39 121.95 12.78L121.95 12.78L121.95 12.78Q121.83 13.12 121.72 13.46L121.72 13.46L121.72 13.46Q121.60 13.80 121.55 13.99L121.55 13.99L121.55 13.99Q120.26 13.99 119.13 13.90L119.13 13.90L119.13 13.90Q117.99 13.82 116.82 13.82L116.82 13.82L116.82 13.82Q116.38 13.82 116.07 13.85L116.07 13.85L116.07 13.85Q115.75 13.87 115.54 13.90L115.54 13.90L115.54 13.90Q115.29 13.94 115.11 13.99L115.11 13.99L115.11 13.82L115.92 13.71L115.92 13.71Q116.02 12.19 116.10 10.77L116.10 10.77L116.10 10.77Q116.13 10.16 116.17 9.51L116.17 9.51L116.17 9.51Q116.20 8.85 116.23 8.22L116.23 8.22L116.23 8.22Q116.26 7.59 116.27 7.01L116.27 7.01L116.27 7.01Q116.28 6.43 116.28 5.96ZM126.24 10.86L126.24 10.86L126.24 10.86Q125.97 10.86 125.59 10.81L125.59 10.81L125.59 10.81Q125.20 10.75 124.85 10.58L124.85 10.58L124.85 10.58Q124.49 10.40 124.24 10.08L124.24 10.08L124.24 10.08Q123.98 9.76 123.98 9.23L123.98 9.23L123.98 9.23Q123.98 8.81 124.20 8.48L124.20 8.48L124.20 8.48Q124.42 8.15 124.75 7.90L124.75 7.90L124.75 7.90Q125.09 7.64 125.51 7.48L125.51 7.48L125.51 7.48Q125.93 7.31 126.32 7.20L126.32 7.20L126.32 7.20Q126.71 7.08 127.04 7.04L127.04 7.04L127.04 7.04Q127.37 6.99 127.54 6.99L127.54 6.99L127.54 6.99Q127.67 6.99 127.86 6.99L127.86 6.99L127.86 6.99Q128.04 7 128.23 7.02L128.23 7.02L128.23 7.02Q128.42 7.04 128.60 7.06L128.60 7.06L128.60 7.06Q128.77 7.08 128.86 7.13L128.86 7.13L128.86 7.13Q128.80 7.31 128.74 7.54L128.74 7.54L128.74 7.54Q128.67 7.77 128.62 8.02L128.62 8.02L128.62 8.02Q128.56 8.26 128.53 8.50L128.53 8.50L128.53 8.50Q128.49 8.75 128.49 8.96L128.49 8.96L128.49 8.96Q128.39 8.75 128.23 8.50L128.23 8.50L128.23 8.50Q128.06 8.26 127.83 8.04L127.83 8.04L127.83 8.04Q127.60 7.83 127.30 7.69L127.30 7.69L127.30 7.69Q127.01 7.55 126.66 7.55L126.66 7.55L126.66 7.55Q126.39 7.55 126.19 7.63L126.19 7.63L126.19 7.63Q125.99 7.71 125.84 7.85L125.84 7.85L125.84 7.85Q125.69 7.99 125.62 8.16L125.62 8.16L125.62 8.16Q125.54 8.32 125.54 8.47L125.54 8.47L125.54 8.47Q125.54 8.79 125.69 9.04L125.69 9.04L125.69 9.04Q125.85 9.28 126.10 9.45L126.10 9.45L126.10 9.45Q126.35 9.62 126.68 9.70L126.68 9.70L126.68 9.70Q127.01 9.79 127.36 9.79L127.36 9.79L127.36 9.79Q127.93 9.79 128.35 9.90L128.35 9.90L128.35 9.90Q128.76 10.01 129.02 10.19L129.02 10.19L129.02 10.19Q129.28 10.37 129.40 10.61L129.40 10.61L129.40 10.61Q129.51 10.84 129.51 11.06L129.51 11.06L129.51 11.06Q129.51 11.80 129.10 12.36L129.10 12.36L129.10 12.36Q128.69 12.91 128.09 13.27L128.09 13.27L128.09 13.27Q127.50 13.64 126.85 13.82L126.85 13.82L126.85 13.82Q126.20 14 125.72 14L125.72 14L125.72 14Q125.01 14 124.45 13.82L124.45 13.82L124.45 13.82Q123.89 13.64 123.66 13.44L123.66 13.44L123.66 13.44Q123.82 13.20 123.93 12.77L123.93 12.77L123.93 12.77Q124.04 12.33 124.08 11.76L124.08 11.76L124.08 11.76Q124.26 12.11 124.57 12.40L124.57 12.40L124.57 12.40Q124.88 12.68 125.26 12.88L125.26 12.88L125.26 12.88Q125.64 13.08 126.06 13.19L126.06 13.19L126.06 13.19Q126.49 13.30 126.94 13.30L126.94 13.30L126.94 13.30Q127.09 13.30 127.29 13.26L127.29 13.26L127.29 13.26Q127.48 13.22 127.65 13.12L127.65 13.12L127.65 13.12Q127.82 13.02 127.94 12.85L127.94 12.85L127.94 12.85Q128.06 12.68 128.06 12.42L128.06 12.42L128.06 12.42Q128.06 12.17 127.93 11.89L127.93 11.89L127.93 11.89Q127.81 11.62 127.57 11.39L127.57 11.39L127.57 11.39Q127.33 11.16 126.99 11.01L126.99 11.01L126.99 11.01Q126.66 10.86 126.24 10.86ZM132.27-0.03L132.27-0.03L132.27-0.03Q132.27-3.22 132.22-4.93L132.22-4.93L132.22-4.93Q132.16-6.65 131.99-7.01L131.99-7.01L131.99-7.01Q132.41-7.01 132.85-7.22L132.85-7.22L132.85-7.22Q133.29-7.42 133.76-7.73L133.76-7.73L133.76-7.73Q134.22-8.04 134.71-8.40L134.71-8.40L134.71-8.40Q135.20-8.76 135.71-9.07L135.71-9.07L135.71-9.07Q136.22-9.38 136.77-9.58L136.77-9.58L136.77-9.58Q137.33-9.79 137.91-9.79L137.91-9.79L137.91-9.79Q138.70-9.79 139.23-9.55L139.23-9.55L139.23-9.55Q139.76-9.32 140.08-8.93L140.08-8.93L140.08-8.93Q140.41-8.54 140.54-8.04L140.54-8.04L140.54-8.04Q140.67-7.55 140.67-7.01L140.67-7.01L140.67-7.01Q140.67-5.70 140.25-4.59L140.25-4.59L140.25-4.59Q139.83-3.47 139.15-2.54L139.15-2.54L139.15-2.54Q138.46-1.61 137.58-0.85L137.58-0.85L137.58-0.85Q136.70-0.10 135.79 0.49L135.79 0.49L135.79 0.49Q133.64 1.88 130.91 2.74L130.91 2.74L130.91 2.74Q133.60 1.88 135.72 0.49L135.72 0.49L135.72 0.49Q136.61-0.10 137.48-0.85L137.48-0.85L137.48-0.85Q138.35-1.61 139.03-2.54L139.03-2.54L139.03-2.54Q139.71-3.47 140.12-4.59L140.12-4.59L140.12-4.59Q140.53-5.70 140.53-7.01L140.53-7.01L140.53-7.01Q140.53-7.55 140.41-8.02L140.41-8.02L140.41-8.02Q140.28-8.50 139.98-8.86L139.98-8.86L139.98-8.86Q139.68-9.23 139.17-9.44L139.17-9.44L139.17-9.44Q138.67-9.65 137.91-9.65L137.91-9.65L137.91-9.65Q137.09-9.65 136.43-9.33L136.43-9.33L136.43-9.33Q135.77-9.02 135.29-8.57L135.29-8.57L135.29-8.57Q134.81-8.13 134.51-7.66L134.51-7.66L134.51-7.66Q134.20-7.20 134.11-6.87L134.11-6.87L134.11-6.87Q133.95-6.40 133.87-5.85L133.87-5.85L133.87-5.85Q133.78-5.31 133.74-4.53L133.74-4.53L133.74-4.53Q133.70-3.75 133.69-2.65L133.69-2.65L133.69-2.65Q133.69-1.55 133.69 0.03L133.69 0.03L133.69 0.03Q133.69 0.71 133.69 1.48L133.69 1.48L133.69 1.48Q133.69 2.25 133.69 3.03L133.69 3.03L133.69 3.03Q133.70 3.81 133.71 4.52L133.71 4.52L133.71 4.52Q133.71 5.24 133.72 5.80L133.72 5.80L133.72 5.80Q133.73 6.36 133.73 6.71L133.73 6.71L133.73 6.71Q133.73 7.06 133.73 7.08L133.73 7.08L133.73 7.08Q133.98 7.17 134.27 7.20L134.27 7.20L134.27 7.20Q134.55 7.24 134.83 7.24L134.83 7.24L134.83 7.24Q135.11 7.24 135.37 7.22L135.37 7.22L135.37 7.22Q135.62 7.20 135.79 7.18L135.79 7.18L135.79 7.18Q135.62 7.38 135.35 7.51L135.35 7.51L135.35 7.51Q135.07 7.64 134.77 7.74L134.77 7.74L134.77 7.74Q134.47 7.84 134.18 7.90L134.18 7.90L134.18 7.90Q133.90 7.97 133.69 8.02L133.69 8.02L133.69 8.02Q133.71 8.54 133.67 9.06L133.67 9.06L133.67 9.06Q133.63 9.59 133.63 10.08L133.63 10.08L133.63 10.08Q133.63 10.57 133.71 11.00L133.71 11.00L133.71 11.00Q133.80 11.44 134.06 11.77L134.06 11.77L134.06 11.77Q134.32 12.11 134.80 12.33L134.80 12.33L134.80 12.33Q135.28 12.54 136.08 12.59L136.08 12.59L136.08 12.59Q135.87 12.77 135.64 13.01L135.64 13.01L135.64 13.01Q135.41 13.24 135.16 13.45L135.16 13.45L135.16 13.45Q134.90 13.66 134.64 13.81L134.64 13.81L134.64 13.81Q134.37 13.96 134.09 13.96L134.09 13.96L134.09 13.96Q133.80 13.96 133.50 13.84L133.50 13.84L133.50 13.84Q133.21 13.72 132.98 13.48L132.98 13.48L132.98 13.48Q132.75 13.24 132.59 12.91L132.59 12.91L132.59 12.91Q132.44 12.57 132.43 12.12L132.43 12.12L132.43 12.12Q132.38 10.99 132.36 9.93L132.36 9.93L132.36 9.93Q132.33 8.86 132.33 7.98L132.33 7.98L132.33 7.98Q131.96 7.95 131.72 7.92L131.72 7.92L131.72 7.92Q131.47 7.90 131.32 7.87L131.32 7.87L131.32 7.87Q131.14 7.83 131.01 7.78L131.01 7.78L131.01 7.78Q131.19 7.71 131.40 7.62L131.40 7.62L131.40 7.62Q131.59 7.53 131.80 7.41L131.80 7.41L131.80 7.41Q132.01 7.29 132.22 7.13L132.22 7.13L132.22 7.13Q132.23 7.07 132.24 6.71L132.24 6.71L132.24 6.71Q132.24 6.36 132.25 5.79L132.25 5.79L132.25 5.79Q132.26 5.22 132.27 4.50L132.27 4.50L132.27 4.50Q132.27 3.78 132.27 3.00L132.27 3.00L132.27 3.00Q132.27 2.23 132.27 1.45L132.27 1.45L132.27 1.45Q132.27 0.67 132.27-0.03ZM143.36 9.52L143.36 9.52L143.36 9.52Q143.47 9.79 143.68 10.30L143.68 10.30L143.68 10.30Q143.89 10.82 144.12 11.35L144.12 11.35L144.12 11.35Q144.35 11.89 144.58 12.29L144.58 12.29L144.58 12.29Q144.80 12.70 144.96 12.73L144.96 12.73L144.96 12.73Q144.54 12.96 144.08 13.30L144.08 13.30L144.08 13.30Q143.63 13.64 143.29 14L143.29 14L143.29 14Q143.22 13.69 143.04 13.14L143.04 13.14L143.04 13.14Q142.86 12.59 142.55 11.93L142.55 11.93L142.55 11.93Q142.28 12.19 141.88 12.55L141.88 12.55L141.88 12.55Q141.47 12.91 141.01 13.23L141.01 13.23L141.01 13.23Q140.55 13.55 140.05 13.78L140.05 13.78L140.05 13.78Q139.55 14 139.10 14L139.10 14L139.10 14Q138.78 14 138.44 13.91L138.44 13.91L138.44 13.91Q138.10 13.82 137.82 13.64L137.82 13.64L137.82 13.64Q137.54 13.47 137.36 13.22L137.36 13.22L137.36 13.22Q137.19 12.96 137.19 12.64L137.19 12.64L137.19 12.64Q137.19 12.25 137.59 11.80L137.59 11.80L137.59 11.80Q138.00 11.35 138.60 10.91L138.60 10.91L138.60 10.91Q139.20 10.47 139.90 10.05L139.90 10.05L139.90 10.05Q140.60 9.63 141.19 9.27L141.19 9.27L141.19 9.27Q140.76 8.72 140.37 8.48L140.37 8.48L140.37 8.48Q139.99 8.23 139.52 8.23L139.52 8.23L139.52 8.23Q139.33 8.23 139.01 8.34L139.01 8.34L139.01 8.34Q138.70 8.46 138.40 8.60L138.40 8.60L138.40 8.60Q138.04 8.75 137.68 8.95L137.68 8.95L137.68 8.95Q138.46 8.41 139.19 7.98L139.19 7.98L139.19 7.98Q139.50 7.80 139.82 7.63L139.82 7.63L139.82 7.63Q140.14 7.46 140.44 7.32L140.44 7.32L140.44 7.32Q140.74 7.18 141.00 7.10L141.00 7.10L141.00 7.10Q141.26 7.01 141.44 7.01L141.44 7.01L141.44 7.01Q141.79 7.01 142.09 7.31L142.09 7.31L142.09 7.31Q142.39 7.62 142.64 8.03L142.64 8.03L142.64 8.03Q142.88 8.44 143.06 8.86L143.06 8.86L143.06 8.86Q143.23 9.28 143.36 9.52ZM140.62 12.64L140.62 12.64L140.62 12.64Q140.95 12.64 141.26 12.54L141.26 12.54L141.26 12.54Q141.57 12.45 141.80 12.26L141.80 12.26L141.80 12.26Q142.03 12.08 142.17 11.83L142.17 11.83L142.17 11.83Q142.31 11.58 142.31 11.28L142.31 11.28L142.31 11.28Q142.20 11.10 142.07 10.88L142.07 10.88L142.07 10.88Q141.95 10.67 141.83 10.47L141.83 10.47L141.83 10.47Q141.72 10.22 141.60 9.99L141.60 9.99L141.60 9.99Q141.48 9.76 141.36 9.60L141.36 9.60L141.36 9.60Q141.05 9.72 140.61 9.92L140.61 9.92L140.61 9.92Q140.17 10.12 139.76 10.39L139.76 10.39L139.76 10.39Q139.36 10.67 139.07 10.99L139.07 10.99L139.07 10.99Q138.78 11.31 138.78 11.66L138.78 11.66L138.78 11.66Q138.78 11.86 138.93 12.03L138.93 12.03L138.93 12.03Q139.08 12.21 139.32 12.34L139.32 12.34L139.32 12.34Q139.57 12.47 139.90 12.56L139.90 12.56L139.90 12.56Q140.24 12.64 140.62 12.64ZM147.01-0.03L147.01-0.03L147.01-0.03Q147.01-3.22 146.96-4.93L146.96-4.93L146.96-4.93Q146.90-6.65 146.73-7.01L146.73-7.01L146.73-7.01Q147.15-7.01 147.59-7.22L147.59-7.22L147.59-7.22Q148.04-7.42 148.50-7.73L148.50-7.73L148.50-7.73Q148.96-8.04 149.45-8.40L149.45-8.40L149.45-8.40Q149.94-8.76 150.45-9.07L150.45-9.07L150.45-9.07Q150.96-9.38 151.52-9.58L151.52-9.58L151.52-9.58Q152.07-9.79 152.66-9.79L152.66-9.79L152.66-9.79Q153.44-9.79 153.97-9.55L153.97-9.55L153.97-9.55Q154.50-9.32 154.83-8.93L154.83-8.93L154.83-8.93Q155.15-8.54 155.28-8.04L155.28-8.04L155.28-8.04Q155.41-7.55 155.41-7.01L155.41-7.01L155.41-7.01Q155.41-5.70 154.99-4.59L154.99-4.59L154.99-4.59Q154.57-3.47 153.89-2.54L153.89-2.54L153.89-2.54Q153.20-1.61 152.32-0.85L152.32-0.85L152.32-0.85Q151.44-0.10 150.53 0.49L150.53 0.49L150.53 0.49Q148.39 1.88 145.66 2.74L145.66 2.74L145.66 2.74Q148.34 1.88 150.46 0.49L150.46 0.49L150.46 0.49Q151.35-0.10 152.22-0.85L152.22-0.85L152.22-0.85Q153.09-1.61 153.77-2.54L153.77-2.54L153.77-2.54Q154.45-3.47 154.86-4.59L154.86-4.59L154.86-4.59Q155.27-5.70 155.27-7.01L155.27-7.01L155.27-7.01Q155.27-7.55 155.15-8.02L155.15-8.02L155.15-8.02Q155.02-8.50 154.72-8.86L154.72-8.86L154.72-8.86Q154.42-9.23 153.92-9.44L153.92-9.44L153.92-9.44Q153.41-9.65 152.66-9.65L152.66-9.65L152.66-9.65Q151.83-9.65 151.17-9.33L151.17-9.33L151.17-9.33Q150.51-9.02 150.03-8.57L150.03-8.57L150.03-8.57Q149.55-8.13 149.25-7.66L149.25-7.66L149.25-7.66Q148.95-7.20 148.85-6.87L148.85-6.87L148.85-6.87Q148.69-6.40 148.61-5.85L148.61-5.85L148.61-5.85Q148.53-5.31 148.48-4.53L148.48-4.53L148.48-4.53Q148.44-3.75 148.44-2.65L148.44-2.65L148.44-2.65Q148.43-1.55 148.43 0.03L148.43 0.03L148.43 0.03Q148.43 0.71 148.43 1.48L148.43 1.48L148.43 1.48Q148.43 2.25 148.44 3.03L148.44 3.03L148.44 3.03Q148.44 3.81 148.45 4.52L148.45 4.52L148.45 4.52Q148.46 5.24 148.46 5.80L148.46 5.80L148.46 5.80Q148.47 6.36 148.47 6.71L148.47 6.71L148.47 6.71Q148.47 7.06 148.47 7.08L148.47 7.08L148.47 7.08Q148.72 7.17 149.01 7.20L149.01 7.20L149.01 7.20Q149.30 7.24 149.58 7.24L149.58 7.24L149.58 7.24Q149.86 7.24 150.11 7.22L150.11 7.22L150.11 7.22Q150.36 7.20 150.53 7.18L150.53 7.18L150.53 7.18Q150.36 7.38 150.09 7.51L150.09 7.51L150.09 7.51Q149.81 7.64 149.51 7.74L149.51 7.74L149.51 7.74Q149.21 7.84 148.93 7.90L148.93 7.90L148.93 7.90Q148.64 7.97 148.43 8.02L148.43 8.02L148.43 8.02Q148.46 8.54 148.41 9.06L148.41 9.06L148.41 9.06Q148.37 9.59 148.37 10.08L148.37 10.08L148.37 10.08Q148.37 10.57 148.46 11.00L148.46 11.00L148.46 11.00Q148.54 11.44 148.80 11.77L148.80 11.77L148.80 11.77Q149.06 12.11 149.54 12.33L149.54 12.33L149.54 12.33Q150.02 12.54 150.82 12.59L150.82 12.59L150.82 12.59Q150.61 12.77 150.38 13.01L150.38 13.01L150.38 13.01Q150.15 13.24 149.90 13.45L149.90 13.45L149.90 13.45Q149.65 13.66 149.38 13.81L149.38 13.81L149.38 13.81Q149.11 13.96 148.83 13.96L148.83 13.96L148.83 13.96Q148.54 13.96 148.25 13.84L148.25 13.84L148.25 13.84Q147.95 13.72 147.72 13.48L147.72 13.48L147.72 13.48Q147.49 13.24 147.34 12.91L147.34 12.91L147.34 12.91Q147.18 12.57 147.17 12.12L147.17 12.12L147.17 12.12Q147.13 10.99 147.10 9.93L147.10 9.93L147.10 9.93Q147.07 8.86 147.07 7.98L147.07 7.98L147.07 7.98Q146.71 7.95 146.46 7.92L146.46 7.92L146.46 7.92Q146.22 7.90 146.06 7.87L146.06 7.87L146.06 7.87Q145.88 7.83 145.75 7.78L145.75 7.78L145.75 7.78Q145.94 7.71 146.15 7.62L146.15 7.62L146.15 7.62Q146.33 7.53 146.54 7.41L146.54 7.41L146.54 7.41Q146.75 7.29 146.96 7.13L146.96 7.13L146.96 7.13Q146.97 7.07 146.98 6.71L146.98 6.71L146.98 6.71Q146.99 6.36 146.99 5.79L146.99 5.79L146.99 5.79Q147 5.22 147.01 4.50L147.01 4.50L147.01 4.50Q147.01 3.78 147.01 3.00L147.01 3.00L147.01 3.00Q147.01 2.23 147.01 1.45L147.01 1.45L147.01 1.45Q147.01 0.67 147.01-0.03ZM156.84 12.49L156.84 12.49L156.84 12.49Q157.25 12.49 157.60 12.38L157.60 12.38L157.60 12.38Q157.96 12.28 158.23 12.14L158.23 12.14L158.23 12.14Q158.54 11.98 158.80 11.79L158.80 11.79L158.80 11.79Q158.42 12.42 157.89 12.91L157.89 12.91L157.89 12.91Q157.44 13.33 156.76 13.67L156.76 13.67L156.76 13.67Q156.09 14.01 155.19 14.01L155.19 14.01L155.19 14.01Q154.55 14.01 153.96 13.79L153.96 13.79L153.96 13.79Q153.37 13.57 152.91 13.15L152.91 13.15L152.91 13.15Q152.46 12.73 152.19 12.12L152.19 12.12L152.19 12.12Q151.93 11.51 151.93 10.75L151.93 10.75L151.93 10.75Q151.93 10.07 152.15 9.54L152.15 9.54L152.15 9.54Q152.36 9.02 152.71 8.62L152.71 8.62L152.71 8.62Q153.06 8.23 153.50 7.97L153.50 7.97L153.50 7.97Q153.93 7.71 154.35 7.55L154.35 7.55L154.35 7.55Q155.69 7 156.18 7L156.18 7L156.18 7Q156.70 7 157.09 7.17L157.09 7.17L157.09 7.17Q157.47 7.35 157.75 7.56L157.75 7.56L157.75 7.56Q158.06 7.81 158.30 8.12L158.30 8.12L153.68 9.98L153.68 9.98Q153.78 10.57 153.96 11.03L153.96 11.03L153.96 11.03Q154.14 11.49 154.49 11.82L154.49 11.82L154.49 11.82Q154.84 12.14 155.40 12.31L155.40 12.31L155.40 12.31Q155.96 12.49 156.84 12.49ZM154.57 7.81L154.57 7.81L154.57 7.81Q154.38 7.81 154.20 7.92L154.20 7.92L154.20 7.92Q154.01 8.02 153.87 8.19L153.87 8.19L153.87 8.19Q153.72 8.36 153.64 8.57L153.64 8.57L153.64 8.57Q153.57 8.78 153.58 8.99L153.58 8.99L153.58 8.99Q153.58 9.21 153.59 9.42L153.59 9.42L153.59 9.42Q153.59 9.63 153.64 9.84L153.64 9.84L155.99 8.76L155.99 8.76Q155.85 8.50 155.64 8.29L155.64 8.29L155.64 8.29Q155.46 8.11 155.19 7.96L155.19 7.96L155.19 7.96Q154.92 7.81 154.57 7.81Z"></path></g><!----><g data-v-423bf9ae="" id="46675f72-f426-4af5-8ab1-0c128009c050" transform="matrix(1.0868111504448785,0,0,1.0868111504448785,-13.255261890115804,-0.23894260335429607)" stroke="none" fill="#E08D04"><g clip-rule="evenodd"><path d="M12.983 10.59l17.018 88.223-5.872-59.049 29.021-1.892-.054-9.883L64.549 1 53.622 18.977z"></path><path d="M59.389 54.548l5.16-53.541-8.74 39.716-19.612 1.045 1.57 20.462-7.766 36.583 12.057-39.899z"></path><path d="M62.8 67.182l.549-10.453-15.979 3.755-.032 11.797-17.337 26.532 21.68-27.616zM65.711 62.394l14.841-4.731 1.509-12.532-15.899 2.095zM72.07 44.502l10.988-1.417 1.581-10.278-8.079-.373L64.549 1l8.43 30.967z"></path><path d="M87.413 31.294l1.256-9.506-9.544-2.694L64.549 1l14.483 22.437-.422 7z"></path></g></g><defs data-v-423bf9ae=""><linearGradient data-v-423bf9ae="" gradientTransform="rotate(25)" id="4b0b2561-a8e8-4bdf-bd67-daac7395216d" x1="0%" y1="0%" x2="100%" y2="0%"><stop data-v-423bf9ae="" offset="0%" style="stop-color: rgb(255, 206, 0); stop-opacity: 1;"></stop><stop data-v-423bf9ae="" offset="100%" style="stop-color: rgb(255, 103, 0); stop-opacity: 1;"></stop></linearGradient></defs><g data-v-423bf9ae="" id="2ed6bcca-bc65-4abd-83e7-3fef8e0fe872" fill="url(#4b0b2561-a8e8-4bdf-bd67-daac7395216d)" transform="matrix(0.407381908994485,0,0,0.407381908994485,101.93047723426221,58.456020764880876)"><path d="M6.43 9.91C6.29 9.65 6.09 9.39 5.85 9.21C5.61 9.03 5.36 8.88 5.07 8.75C4.77 8.62 4.45 8.51 4.14 8.41C3.84 8.32 3.53 8.20 3.23 8.11C2.94 7.99 2.67 7.87 2.44 7.71C2.20 7.56 2.02 7.38 1.88 7.15C1.74 6.93 1.65 6.65 1.65 6.31C1.65 6.06 1.71 5.82 1.81 5.59C1.90 5.35 2.04 5.15 2.23 4.97C2.41 4.79 2.63 4.65 2.91 4.55C3.19 4.45 3.50 4.40 3.86 4.40C4.54 4.40 5.15 4.51 5.71 4.75C5.75 5.54 5.78 5.99 5.78 6.06C5.80 6.29 5.88 6.41 6.08 6.41L6.41 6.41L6.41 4.38C5.53 4.00 4.69 3.81 3.86 3.81C3.40 3.81 3.00 3.88 2.63 4.02C2.27 4.16 1.97 4.34 1.74 4.58C1.50 4.82 1.30 5.08 1.18 5.39C1.05 5.70 0.99 6.02 0.99 6.36C0.99 6.78 1.06 7.14 1.20 7.42C1.34 7.70 1.54 7.92 1.78 8.12C2.02 8.32 2.27 8.46 2.56 8.58C2.86 8.71 3.18 8.82 3.49 8.92C3.79 9.02 4.09 9.11 4.40 9.21C4.69 9.31 4.96 9.45 5.19 9.60C5.43 9.76 5.61 9.94 5.75 10.16C5.89 10.39 5.96 10.68 5.96 11.03C5.96 11.35 5.91 11.66 5.80 11.94C5.68 12.22 5.53 12.46 5.32 12.67C5.11 12.88 4.84 13.05 4.54 13.16C4.23 13.29 3.88 13.33 3.49 13.33C2.70 13.33 2.04 13.20 1.51 12.95C1.50 12.75 1.50 12.54 1.48 12.32C1.47 12.10 1.47 11.91 1.46 11.76C1.44 11.61 1.44 11.52 1.44 11.51C1.43 11.28 1.33 11.17 1.13 11.17L0.80 11.17L0.80 13.02L0.80 13.20L0.80 13.38C1.65 13.75 2.53 13.93 3.46 13.93C3.96 13.93 4.41 13.85 4.80 13.69C5.19 13.54 5.53 13.31 5.80 13.05C6.06 12.78 6.29 12.46 6.43 12.10C6.57 11.73 6.64 11.34 6.64 10.92C6.64 10.51 6.57 10.18 6.43 9.91ZM21.13 4.68C20.54 4.17 19.66 3.92 18.49 3.92L16.09 3.92L14.90 3.92L14.90 4.19C14.90 4.34 14.99 4.42 15.18 4.44L15.32 4.44C15.39 4.44 15.48 4.45 15.62 4.45C15.76 4.45 15.92 4.47 16.09 4.47L16.09 13.26C15.92 13.26 15.76 13.27 15.62 13.27C15.48 13.27 15.39 13.29 15.32 13.29L15.18 13.29C14.99 13.30 14.90 13.38 14.90 13.54L14.90 13.82L16.09 13.82L16.80 13.82L17.98 13.82L17.98 13.54C17.98 13.38 17.88 13.30 17.70 13.29L17.57 13.29C17.50 13.29 17.39 13.27 17.25 13.27C17.11 13.27 16.97 13.26 16.80 13.26L16.80 9.83L18.49 9.83C19.04 9.83 19.53 9.74 19.96 9.60C20.40 9.45 20.76 9.25 21.07 8.99C21.38 8.72 21.62 8.41 21.77 8.05C21.94 7.69 22.01 7.29 22.01 6.86C22.01 5.92 21.71 5.18 21.13 4.68ZM21.10 7.81C20.97 8.11 20.79 8.36 20.55 8.57C20.31 8.78 20.02 8.95 19.67 9.07C19.32 9.20 18.93 9.25 18.49 9.25L16.80 9.25L16.80 4.48L18.49 4.48C19.42 4.48 20.12 4.69 20.59 5.10C21.06 5.50 21.29 6.09 21.29 6.85C21.29 7.20 21.22 7.52 21.10 7.81ZM31.39 3.92L30.20 3.92L30.20 4.19C30.20 4.34 30.30 4.42 30.48 4.44L30.62 4.44C30.69 4.44 30.79 4.45 30.93 4.45C31.07 4.45 31.22 4.47 31.39 4.47L31.39 13.26C31.22 13.26 31.07 13.27 30.93 13.27C30.79 13.27 30.69 13.29 30.62 13.29L30.48 13.29C30.30 13.30 30.21 13.38 30.21 13.54L30.21 13.82L31.39 13.82L37.32 13.82L37.32 13.22L37.32 11.76L36.97 11.76C36.78 11.76 36.69 11.89 36.68 12.11C36.68 12.14 36.67 12.19 36.67 12.29C36.67 12.39 36.67 12.53 36.65 12.74C36.64 12.95 36.62 13.09 36.62 13.22L32.10 13.22L32.10 9.09L36.05 9.09L36.05 8.51L32.10 8.51L32.10 4.51L36.62 4.51C36.65 5.12 36.68 5.50 36.68 5.63C36.69 5.85 36.78 5.96 36.97 5.96L37.32 5.96L37.32 4.51L37.32 3.92ZM53.52 12.21C53.49 12.18 53.45 12.15 53.41 12.15C53.38 12.15 53.37 12.15 53.34 12.17C53.33 12.18 53.30 12.21 53.27 12.22C53.07 12.40 52.86 12.56 52.67 12.70C52.47 12.84 52.26 12.94 52.02 13.03C51.79 13.13 51.53 13.20 51.25 13.24C50.97 13.29 50.67 13.31 50.32 13.31C49.76 13.31 49.21 13.22 48.73 13.01C48.24 12.81 47.84 12.52 47.49 12.14C47.14 11.76 46.84 11.28 46.65 10.74C46.45 10.19 46.35 9.56 46.35 8.86C46.35 8.18 46.45 7.56 46.65 7.01C46.86 6.47 47.14 6.01 47.50 5.61C47.87 5.24 48.30 4.94 48.80 4.73C49.31 4.52 49.85 4.42 50.46 4.42C51.35 4.42 52.18 4.56 52.91 4.89C52.95 5.78 52.99 6.30 52.99 6.41C53.00 6.64 53.09 6.75 53.28 6.75L53.62 6.75L53.62 4.51C52.44 4.03 51.38 3.81 50.46 3.81C49.74 3.81 49.10 3.92 48.50 4.17C47.91 4.42 47.38 4.76 46.96 5.21C46.52 5.66 46.20 6.19 45.96 6.80C45.72 7.42 45.61 8.11 45.61 8.86C45.61 9.63 45.74 10.32 45.96 10.95C46.19 11.58 46.51 12.10 46.91 12.54C47.32 12.99 47.81 13.33 48.38 13.57C48.96 13.80 49.57 13.93 50.26 13.93C50.67 13.93 51.04 13.90 51.39 13.83C51.73 13.76 52.05 13.66 52.35 13.54C52.63 13.41 52.89 13.26 53.13 13.09C53.37 12.91 53.59 12.73 53.80 12.50ZM64.62 4.44C64.81 4.42 64.89 4.34 64.89 4.19L64.89 3.91L63.71 3.91L63.00 3.91L61.81 3.91L61.81 4.19C61.81 4.34 61.91 4.42 62.09 4.44L62.23 4.44C62.30 4.44 62.40 4.45 62.54 4.45C62.68 4.45 62.83 4.47 63.00 4.47L63.00 13.26C62.83 13.26 62.68 13.27 62.54 13.27C62.40 13.27 62.30 13.29 62.23 13.29L62.09 13.29C61.91 13.30 61.81 13.38 61.81 13.54L61.81 13.82L63.00 13.82L63.71 13.82L64.89 13.82L64.89 13.54C64.89 13.38 64.81 13.30 64.62 13.29L64.48 13.29C64.41 13.29 64.32 13.27 64.18 13.27C64.04 13.27 63.88 13.26 63.71 13.26L63.71 4.47C63.88 4.47 64.04 4.45 64.18 4.45C64.32 4.45 64.41 4.44 64.48 4.44ZM82.53 13.22L82.07 13.17L78.29 3.91L77.57 3.91L73.78 13.17L73.33 13.22C73.15 13.23 73.07 13.33 73.07 13.50L73.07 13.82L73.51 13.82L73.81 13.82L74.06 13.82L74.16 13.82L75.47 13.82L75.47 13.50C75.47 13.31 75.36 13.23 75.15 13.22C75.14 13.22 75.11 13.20 75.07 13.20C75.03 13.20 74.97 13.19 74.87 13.19C74.77 13.19 74.65 13.19 74.51 13.17L75.49 10.75L75.56 10.57L80.29 10.57L80.36 10.75L81.34 13.17C81.20 13.19 81.09 13.19 80.99 13.19C80.89 13.19 80.82 13.20 80.78 13.20C80.74 13.20 80.71 13.22 80.70 13.22C80.49 13.23 80.37 13.31 80.37 13.50L80.37 13.82L81.69 13.82L81.79 13.82L82.05 13.82L82.33 13.82L82.80 13.82L82.80 13.50C82.80 13.33 82.71 13.23 82.53 13.22ZM77.73 5.22C77.76 5.14 77.80 5.04 77.83 4.94C77.85 4.84 77.90 4.75 77.92 4.63C77.95 4.75 77.99 4.84 78.02 4.94C78.05 5.04 78.09 5.12 78.12 5.21L80.08 10.04L75.78 10.04ZM97.40 11.97C97.20 11.97 97.12 12.08 97.10 12.31C97.10 12.32 97.10 12.38 97.09 12.43C97.08 12.49 97.08 12.59 97.06 12.71C97.05 12.84 97.03 13.01 97.02 13.20L92.93 13.20L92.93 4.47C93.10 4.47 93.24 4.45 93.38 4.45C93.52 4.45 93.63 4.44 93.70 4.44L93.83 4.44C94.01 4.42 94.11 4.34 94.11 4.19L94.11 3.92L92.93 3.92L92.22 3.92L91.03 3.92L91.03 4.19C91.03 4.34 91.13 4.42 91.31 4.44L91.45 4.44C91.52 4.44 91.62 4.45 91.76 4.45C91.90 4.45 92.05 4.47 92.22 4.47L92.22 13.26C92.05 13.26 91.90 13.27 91.76 13.27C91.62 13.27 91.52 13.29 91.45 13.29L91.31 13.29C91.13 13.30 91.03 13.38 91.03 13.54L91.03 13.82L92.22 13.82L97.50 13.82L97.62 13.82L97.75 13.82L97.75 13.55L97.75 12.99L97.75 11.97L97.47 11.97ZM108.99 4.44C109.17 4.42 109.26 4.34 109.26 4.19L109.26 3.91L108.08 3.91L107.37 3.91L106.18 3.91L106.18 4.19C106.18 4.34 106.27 4.42 106.46 4.44L106.60 4.44C106.67 4.44 106.76 4.45 106.90 4.45C107.04 4.45 107.20 4.47 107.37 4.47L107.37 13.26C107.20 13.26 107.04 13.27 106.90 13.27C106.76 13.27 106.67 13.29 106.60 13.29L106.46 13.29C106.27 13.30 106.18 13.38 106.18 13.54L106.18 13.82L107.37 13.82L108.08 13.82L109.26 13.82L109.26 13.54C109.26 13.38 109.17 13.30 108.99 13.29L108.85 13.29C108.78 13.29 108.68 13.27 108.54 13.27C108.40 13.27 108.25 13.26 108.08 13.26L108.08 4.47C108.25 4.47 108.40 4.45 108.54 4.45C108.68 4.45 108.78 4.44 108.85 4.44ZM124.95 4.16L124.95 3.92L117.80 3.92L117.80 3.92L117.80 6.03L118.15 6.03C118.34 6.03 118.43 5.92 118.44 5.70C118.44 5.68 118.45 5.61 118.47 5.52C118.48 5.42 118.48 5.26 118.50 5.08C118.51 4.90 118.52 4.72 118.54 4.51L124.00 4.51L117.70 13.31C117.64 13.40 117.63 13.47 117.63 13.55L117.63 13.82L124.89 13.82L124.89 13.82L124.89 11.69L124.56 11.69C124.36 11.69 124.28 11.82 124.26 12.04C124.26 12.05 124.25 12.12 124.24 12.22C124.22 12.32 124.22 12.46 124.21 12.64C124.19 12.82 124.18 13.02 124.17 13.23L118.57 13.23L124.85 4.45C124.92 4.35 124.95 4.26 124.95 4.16ZM136.28 4.44C136.46 4.42 136.54 4.34 136.54 4.19L136.54 3.91L135.37 3.91L134.65 3.91L133.46 3.91L133.46 4.19C133.46 4.34 133.56 4.42 133.74 4.44L133.88 4.44C133.95 4.44 134.05 4.45 134.19 4.45C134.33 4.45 134.48 4.47 134.65 4.47L134.65 13.26C134.48 13.26 134.33 13.27 134.19 13.27C134.05 13.27 133.95 13.29 133.88 13.29L133.74 13.29C133.56 13.30 133.46 13.38 133.46 13.54L133.46 13.82L134.65 13.82L135.37 13.82L136.54 13.82L136.54 13.54C136.54 13.38 136.46 13.30 136.28 13.29L136.14 13.29C136.07 13.29 135.97 13.27 135.83 13.27C135.69 13.27 135.53 13.26 135.37 13.26L135.37 4.47C135.53 4.47 135.69 4.45 135.83 4.45C135.97 4.45 136.07 4.44 136.14 4.44ZM153.72 3.92L153.09 3.92L151.87 3.92L151.87 4.19C151.87 4.34 151.97 4.42 152.15 4.44L152.29 4.44C152.36 4.44 152.47 4.45 152.61 4.45C152.75 4.45 152.92 4.47 153.09 4.47L153.09 12.22C153.09 12.35 153.09 12.49 153.10 12.63L146.69 4.05C146.65 3.99 146.62 3.95 146.58 3.93C146.54 3.92 146.50 3.91 146.43 3.91L146.08 3.91L144.89 3.91L144.89 4.19C144.89 4.34 144.98 4.42 145.17 4.44L145.31 4.44C145.38 4.44 145.47 4.45 145.61 4.45C145.75 4.45 145.91 4.47 146.08 4.47L146.08 13.26C145.91 13.26 145.75 13.27 145.61 13.27C145.47 13.27 145.38 13.29 145.31 13.29L145.17 13.29C144.98 13.30 144.89 13.38 144.89 13.54L144.89 13.82L146.08 13.82L146.69 13.82L147.91 13.82L147.91 13.54C147.91 13.38 147.81 13.30 147.63 13.29L147.49 13.29C147.42 13.29 147.29 13.27 147.15 13.27C147.01 13.27 146.86 13.26 146.69 13.26L146.69 5.49C146.69 5.36 146.69 5.22 146.68 5.08L153.12 13.68C153.19 13.78 153.26 13.82 153.37 13.82L153.72 13.82L153.72 4.47C153.89 4.47 154.03 4.45 154.17 4.45C154.31 4.45 154.42 4.44 154.49 4.44L154.62 4.44C154.80 4.42 154.90 4.34 154.90 4.19L154.90 3.92ZM168.57 9.32L168.57 9.72C168.57 9.76 168.60 9.80 168.63 9.83C168.66 9.86 168.70 9.87 168.76 9.87L170.66 9.87L170.66 12.54C170.44 12.67 170.21 12.78 170.00 12.88C169.79 12.98 169.55 13.08 169.32 13.15C169.08 13.22 168.81 13.27 168.53 13.30C168.25 13.33 167.94 13.34 167.61 13.34C166.99 13.34 166.43 13.24 165.93 13.03C165.42 12.82 164.99 12.53 164.63 12.15C164.26 11.77 163.98 11.30 163.79 10.74C163.59 10.18 163.48 9.56 163.48 8.86C163.48 8.18 163.59 7.56 163.79 7.01C163.98 6.47 164.26 5.99 164.63 5.61C164.99 5.24 165.44 4.94 165.96 4.73C166.47 4.52 167.05 4.42 167.69 4.42C168.87 4.42 169.81 4.58 170.49 4.90C170.53 5.81 170.56 6.31 170.56 6.41C170.58 6.64 170.67 6.75 170.87 6.75L171.21 6.75L171.21 4.51C170.77 4.31 170.21 4.14 169.51 4.00C168.81 3.86 168.22 3.81 167.72 3.81C166.96 3.81 166.28 3.92 165.66 4.16C165.05 4.40 164.53 4.75 164.09 5.18C163.66 5.61 163.34 6.15 163.10 6.78C162.86 7.39 162.75 8.09 162.75 8.86C162.75 9.63 162.86 10.32 163.10 10.95C163.34 11.58 163.66 12.10 164.08 12.54C164.50 12.99 165.02 13.33 165.61 13.57C166.19 13.80 166.84 13.93 167.55 13.93C167.97 13.93 168.35 13.90 168.70 13.86C169.05 13.80 169.37 13.73 169.68 13.65C169.99 13.55 170.27 13.44 170.53 13.30C170.80 13.16 171.05 13.01 171.30 12.84L171.30 9.32ZM192.89 4.44C193.07 4.42 193.16 4.34 193.16 4.19L193.16 3.91L191.98 3.91L191.27 3.91L190.08 3.91L190.08 4.19C190.08 4.34 190.18 4.42 190.36 4.44L190.50 4.44C190.57 4.44 190.67 4.45 190.81 4.45C190.95 4.45 191.10 4.47 191.27 4.47L191.27 13.26C191.10 13.26 190.95 13.27 190.81 13.27C190.67 13.27 190.57 13.29 190.50 13.29L190.36 13.29C190.18 13.30 190.08 13.38 190.08 13.54L190.08 13.82L191.27 13.82L191.98 13.82L193.16 13.82L193.16 13.54C193.16 13.38 193.07 13.30 192.89 13.29L192.75 13.29C192.68 13.29 192.58 13.27 192.44 13.27C192.30 13.27 192.15 13.26 191.98 13.26L191.98 4.47C192.15 4.47 192.30 4.45 192.44 4.45C192.58 4.45 192.68 4.44 192.75 4.44ZM210.34 3.92L209.71 3.92L208.49 3.92L208.49 4.19C208.49 4.34 208.59 4.42 208.77 4.44L208.91 4.44C208.98 4.44 209.09 4.45 209.23 4.45C209.37 4.45 209.54 4.47 209.71 4.47L209.71 12.22C209.71 12.35 209.71 12.49 209.72 12.63L203.31 4.05C203.27 3.99 203.24 3.95 203.20 3.93C203.15 3.92 203.11 3.91 203.04 3.91L202.69 3.91L201.50 3.91L201.50 4.19C201.50 4.34 201.60 4.42 201.78 4.44L201.92 4.44C201.99 4.44 202.09 4.45 202.23 4.45C202.37 4.45 202.52 4.47 202.69 4.47L202.69 13.26C202.52 13.26 202.37 13.27 202.23 13.27C202.09 13.27 201.99 13.29 201.92 13.29L201.78 13.29C201.60 13.30 201.50 13.38 201.50 13.54L201.50 13.82L202.69 13.82L203.31 13.82L204.53 13.82L204.53 13.54C204.53 13.38 204.43 13.30 204.25 13.29L204.11 13.29C204.04 13.29 203.91 13.27 203.77 13.27C203.63 13.27 203.48 13.26 203.31 13.26L203.31 5.49C203.31 5.36 203.31 5.22 203.29 5.08L209.73 13.68C209.80 13.78 209.87 13.82 209.99 13.82L210.34 13.82L210.34 4.47C210.50 4.47 210.64 4.45 210.78 4.45C210.92 4.45 211.04 4.44 211.11 4.44L211.23 4.44C211.41 4.42 211.51 4.34 211.51 4.19L211.51 3.92ZM236.15 4.68C235.56 4.17 234.68 3.92 233.52 3.92L231.11 3.92L229.92 3.92L229.92 4.19C229.92 4.34 230.02 4.42 230.20 4.44L230.34 4.44C230.41 4.44 230.51 4.45 230.65 4.45C230.79 4.45 230.94 4.47 231.11 4.47L231.11 13.26C230.94 13.26 230.79 13.27 230.65 13.27C230.51 13.27 230.41 13.29 230.34 13.29L230.20 13.29C230.02 13.30 229.92 13.38 229.92 13.54L229.92 13.82L231.11 13.82L231.83 13.82L233.00 13.82L233.00 13.54C233.00 13.38 232.90 13.30 232.72 13.29L232.60 13.29C232.53 13.29 232.41 13.27 232.27 13.27C232.13 13.27 231.99 13.26 231.83 13.26L231.83 9.83L233.52 9.83C234.07 9.83 234.56 9.74 234.99 9.60C235.42 9.45 235.79 9.25 236.10 8.99C236.40 8.72 236.64 8.41 236.80 8.05C236.96 7.69 237.03 7.29 237.03 6.86C237.03 5.92 236.74 5.18 236.15 4.68ZM236.12 7.81C236.00 8.11 235.82 8.36 235.58 8.57C235.34 8.78 235.05 8.95 234.70 9.07C234.35 9.20 233.95 9.25 233.52 9.25L231.83 9.25L231.83 4.48L233.52 4.48C234.44 4.48 235.14 4.69 235.62 5.10C236.08 5.50 236.32 6.09 236.32 6.85C236.32 7.20 236.25 7.52 236.12 7.81ZM253.22 13.29L253.12 13.29L252.94 13.29C252.85 13.29 252.77 13.27 252.69 13.27L249.72 9.53C249.63 9.42 249.52 9.32 249.41 9.25C249.84 9.21 250.24 9.11 250.59 8.96C250.94 8.81 251.22 8.61 251.47 8.37C251.71 8.13 251.90 7.85 252.03 7.55C252.15 7.24 252.22 6.89 252.22 6.51C252.22 5.66 251.94 5.03 251.38 4.58C250.82 4.14 249.97 3.92 248.82 3.92L246.41 3.92L245.24 3.92L245.24 4.19C245.24 4.34 245.32 4.42 245.50 4.44L245.64 4.44C245.71 4.44 245.81 4.45 245.95 4.45C246.09 4.45 246.25 4.47 246.41 4.47L246.41 13.26C246.25 13.26 246.09 13.27 245.95 13.27C245.81 13.27 245.71 13.29 245.64 13.29L245.50 13.29C245.32 13.30 245.22 13.38 245.22 13.54L245.22 13.82L246.41 13.82L247.13 13.82L248.30 13.82L248.30 13.54C248.30 13.38 248.21 13.30 248.02 13.29L247.88 13.29C247.81 13.29 247.72 13.27 247.58 13.27C247.44 13.27 247.30 13.26 247.13 13.26L247.13 9.34L248.30 9.34C248.50 9.34 248.64 9.35 248.72 9.39C248.81 9.44 248.89 9.52 248.98 9.62L252.15 13.64C252.21 13.71 252.25 13.75 252.31 13.78C252.36 13.80 252.43 13.82 252.50 13.82L252.57 13.82L253.12 13.82L253.48 13.82L253.48 13.54C253.48 13.38 253.40 13.30 253.22 13.29ZM248.72 8.81L247.13 8.81L247.13 4.48L248.82 4.48C249.70 4.48 250.38 4.66 250.84 5.00C251.30 5.33 251.52 5.87 251.52 6.57C251.52 6.92 251.47 7.21 251.34 7.49C251.22 7.77 251.02 7.99 250.78 8.19C250.54 8.39 250.25 8.55 249.90 8.65C249.55 8.75 249.16 8.81 248.72 8.81ZM270.65 8.86C270.65 8.11 270.52 7.41 270.30 6.79C270.07 6.17 269.75 5.64 269.33 5.19C268.91 4.75 268.42 4.40 267.85 4.16C267.27 3.92 266.62 3.79 265.92 3.79C265.22 3.79 264.59 3.92 264.01 4.16C263.44 4.40 262.93 4.75 262.51 5.19C262.09 5.64 261.77 6.17 261.55 6.79C261.32 7.41 261.20 8.11 261.20 8.86C261.20 9.63 261.32 10.33 261.55 10.95C261.77 11.56 262.09 12.10 262.51 12.54C262.93 12.99 263.44 13.33 264.01 13.57C264.59 13.80 265.22 13.93 265.92 13.93C266.62 13.93 267.27 13.80 267.85 13.57C268.42 13.33 268.91 12.99 269.33 12.54C269.75 12.10 270.07 11.56 270.30 10.95C270.52 10.33 270.65 9.63 270.65 8.86ZM269.89 8.86C269.89 9.56 269.81 10.18 269.61 10.72C269.42 11.27 269.15 11.75 268.80 12.12C268.45 12.50 268.03 12.81 267.54 13.01C267.05 13.20 266.52 13.30 265.92 13.30C265.33 13.30 264.80 13.20 264.31 13.01C263.82 12.81 263.40 12.50 263.05 12.12C262.70 11.75 262.42 11.27 262.22 10.72C262.02 10.18 261.94 9.56 261.94 8.86C261.94 8.18 262.02 7.55 262.22 7.00C262.42 6.45 262.70 5.98 263.05 5.60C263.40 5.22 263.82 4.91 264.31 4.72C264.80 4.52 265.33 4.41 265.92 4.41C266.52 4.41 267.05 4.52 267.54 4.72C268.03 4.91 268.45 5.22 268.80 5.60C269.15 5.98 269.42 6.45 269.61 7.00C269.81 7.55 269.89 8.18 269.89 8.86ZM285.15 4.68C284.56 4.17 283.68 3.92 282.52 3.92L280.11 3.92L278.92 3.92L278.92 4.19C278.92 4.34 279.02 4.42 279.20 4.44L279.34 4.44C279.41 4.44 279.51 4.45 279.65 4.45C279.79 4.45 279.94 4.47 280.11 4.47L280.11 13.26C279.94 13.26 279.79 13.27 279.65 13.27C279.51 13.27 279.41 13.29 279.34 13.29L279.20 13.29C279.02 13.30 278.92 13.38 278.92 13.54L278.92 13.82L280.11 13.82L280.83 13.82L282.00 13.82L282.00 13.54C282.00 13.38 281.90 13.30 281.72 13.29L281.60 13.29C281.53 13.29 281.41 13.27 281.27 13.27C281.13 13.27 280.99 13.26 280.83 13.26L280.83 9.83L282.52 9.83C283.07 9.83 283.56 9.74 283.99 9.60C284.42 9.45 284.79 9.25 285.10 8.99C285.40 8.72 285.64 8.41 285.80 8.05C285.96 7.69 286.03 7.29 286.03 6.86C286.03 5.92 285.74 5.18 285.15 4.68ZM285.12 7.81C285.00 8.11 284.82 8.36 284.58 8.57C284.34 8.78 284.05 8.95 283.70 9.07C283.35 9.20 282.95 9.25 282.52 9.25L280.83 9.25L280.83 4.48L282.52 4.48C283.44 4.48 284.14 4.69 284.62 5.10C285.08 5.50 285.32 6.09 285.32 6.85C285.32 7.20 285.25 7.52 285.12 7.81ZM295.41 3.92L294.22 3.92L294.22 4.19C294.22 4.34 294.32 4.42 294.50 4.44L294.64 4.44C294.71 4.44 294.81 4.45 294.95 4.45C295.09 4.45 295.25 4.47 295.41 4.47L295.41 13.26C295.25 13.26 295.09 13.27 294.95 13.27C294.81 13.27 294.71 13.29 294.64 13.29L294.50 13.29C294.32 13.30 294.24 13.38 294.24 13.54L294.24 13.82L295.41 13.82L301.35 13.82L301.35 13.22L301.35 11.76L301.00 11.76C300.80 11.76 300.72 11.89 300.71 12.11C300.71 12.14 300.69 12.19 300.69 12.29C300.69 12.39 300.69 12.53 300.68 12.74C300.66 12.95 300.65 13.09 300.65 13.22L296.13 13.22L296.13 9.09L300.08 9.09L300.08 8.51L296.13 8.51L296.13 4.51L300.65 4.51C300.68 5.12 300.71 5.50 300.71 5.63C300.72 5.85 300.80 5.96 301.00 5.96L301.35 5.96L301.35 4.51L301.35 3.92ZM317.93 13.29L317.83 13.29L317.65 13.29C317.56 13.29 317.48 13.27 317.39 13.27L314.43 9.53C314.34 9.42 314.23 9.32 314.12 9.25C314.55 9.21 314.94 9.11 315.29 8.96C315.64 8.81 315.92 8.61 316.18 8.37C316.41 8.13 316.61 7.85 316.74 7.55C316.86 7.24 316.93 6.89 316.93 6.51C316.93 5.66 316.65 5.03 316.09 4.58C315.53 4.14 314.68 3.92 313.53 3.92L311.12 3.92L309.95 3.92L309.95 4.19C309.95 4.34 310.03 4.42 310.21 4.44L310.35 4.44C310.42 4.44 310.52 4.45 310.66 4.45C310.80 4.45 310.95 4.47 311.12 4.47L311.12 13.26C310.95 13.26 310.80 13.27 310.66 13.27C310.52 13.27 310.42 13.29 310.35 13.29L310.21 13.29C310.03 13.30 309.93 13.38 309.93 13.54L309.93 13.82L311.12 13.82L311.84 13.82L313.01 13.82L313.01 13.54C313.01 13.38 312.91 13.30 312.73 13.29L312.59 13.29C312.52 13.29 312.42 13.27 312.28 13.27C312.14 13.27 312.00 13.26 311.84 13.26L311.84 9.34L313.01 9.34C313.21 9.34 313.35 9.35 313.43 9.39C313.52 9.44 313.60 9.52 313.68 9.62L316.86 13.64C316.92 13.71 316.96 13.75 317.02 13.78C317.07 13.80 317.14 13.82 317.21 13.82L317.28 13.82L317.83 13.82L318.19 13.82L318.19 13.54C318.19 13.38 318.11 13.30 317.93 13.29ZM313.43 8.81L311.84 8.81L311.84 4.48L313.53 4.48C314.41 4.48 315.08 4.66 315.55 5.00C316.01 5.33 316.23 5.87 316.23 6.57C316.23 6.92 316.18 7.21 316.05 7.49C315.92 7.77 315.73 7.99 315.49 8.19C315.25 8.39 314.96 8.55 314.61 8.65C314.26 8.75 313.87 8.81 313.43 8.81ZM333.61 3.92L333.41 3.92L326.12 3.92L325.91 3.92L325.81 3.92L325.81 5.96L326.16 5.96C326.35 5.96 326.44 5.85 326.45 5.63C326.45 5.53 326.48 5.17 326.51 4.52L329.41 4.52L329.41 13.26C329.24 13.26 329.10 13.27 328.96 13.27C328.82 13.27 328.71 13.29 328.64 13.29L328.51 13.29C328.33 13.30 328.23 13.38 328.23 13.54L328.23 13.82L329.41 13.82L330.12 13.82L331.31 13.82L331.31 13.54C331.31 13.38 331.21 13.30 331.03 13.29L330.89 13.29C330.82 13.29 330.72 13.27 330.58 13.27C330.44 13.27 330.29 13.26 330.12 13.26L330.12 4.52L333.00 4.52C333.05 5.24 333.06 5.60 333.06 5.63C333.07 5.85 333.17 5.96 333.37 5.96L333.70 5.96L333.70 3.92ZM344.62 4.44C344.81 4.42 344.89 4.34 344.89 4.19L344.89 3.91L343.71 3.91L343.00 3.91L341.81 3.91L341.81 4.19C341.81 4.34 341.91 4.42 342.09 4.44L342.23 4.44C342.30 4.44 342.40 4.45 342.54 4.45C342.68 4.45 342.83 4.47 343.00 4.47L343.00 13.26C342.83 13.26 342.68 13.27 342.54 13.27C342.40 13.27 342.30 13.29 342.23 13.29L342.09 13.29C341.91 13.30 341.81 13.38 341.81 13.54L341.81 13.82L343.00 13.82L343.71 13.82L344.89 13.82L344.89 13.54C344.89 13.38 344.81 13.30 344.62 13.29L344.48 13.29C344.41 13.29 344.32 13.27 344.18 13.27C344.04 13.27 343.88 13.26 343.71 13.26L343.71 4.47C343.88 4.47 344.04 4.45 344.18 4.45C344.32 4.45 344.41 4.44 344.48 4.44ZM354.42 3.92L353.23 3.92L353.23 4.19C353.23 4.34 353.33 4.42 353.51 4.44L353.65 4.44C353.72 4.44 353.82 4.45 353.96 4.45C354.10 4.45 354.26 4.47 354.42 4.47L354.42 13.26C354.26 13.26 354.10 13.27 353.96 13.27C353.82 13.27 353.72 13.29 353.65 13.29L353.51 13.29C353.33 13.30 353.25 13.38 353.25 13.54L353.25 13.82L354.42 13.82L360.36 13.82L360.36 13.22L360.36 11.76L360.01 11.76C359.81 11.76 359.73 11.89 359.72 12.11C359.72 12.14 359.70 12.19 359.70 12.29C359.70 12.39 359.70 12.53 359.69 12.74C359.67 12.95 359.66 13.09 359.66 13.22L355.14 13.22L355.14 9.09L359.09 9.09L359.09 8.51L355.14 8.51L355.14 4.51L359.66 4.51C359.69 5.12 359.72 5.50 359.72 5.63C359.73 5.85 359.81 5.96 360.01 5.96L360.36 5.96L360.36 4.51L360.36 3.92ZM374.67 9.91C374.53 9.65 374.33 9.39 374.09 9.21C373.86 9.03 373.60 8.88 373.31 8.75C373.02 8.62 372.69 8.51 372.39 8.41C372.08 8.32 371.77 8.20 371.48 8.11C371.18 7.99 370.92 7.87 370.68 7.71C370.44 7.56 370.26 7.38 370.12 7.15C369.98 6.93 369.89 6.65 369.89 6.31C369.89 6.06 369.95 5.82 370.05 5.59C370.15 5.35 370.29 5.15 370.47 4.97C370.65 4.79 370.87 4.65 371.15 4.55C371.43 4.45 371.74 4.40 372.11 4.40C372.78 4.40 373.39 4.51 373.95 4.75C374.00 5.54 374.02 5.99 374.02 6.06C374.04 6.29 374.12 6.41 374.32 6.41L374.65 6.41L374.65 4.38C373.77 4.00 372.93 3.81 372.11 3.81C371.64 3.81 371.24 3.88 370.87 4.02C370.51 4.16 370.22 4.34 369.98 4.58C369.74 4.82 369.54 5.08 369.42 5.39C369.29 5.70 369.24 6.02 369.24 6.36C369.24 6.78 369.31 7.14 369.45 7.42C369.59 7.70 369.78 7.92 370.02 8.12C370.26 8.32 370.51 8.46 370.80 8.58C371.10 8.71 371.42 8.82 371.73 8.92C372.04 9.02 372.33 9.11 372.64 9.21C372.93 9.31 373.20 9.45 373.44 9.60C373.67 9.76 373.86 9.94 374.00 10.16C374.14 10.39 374.21 10.68 374.21 11.03C374.21 11.35 374.15 11.66 374.04 11.94C373.93 12.22 373.77 12.46 373.56 12.67C373.35 12.88 373.09 13.05 372.78 13.16C372.47 13.29 372.12 13.33 371.73 13.33C370.94 13.33 370.29 13.20 369.75 12.95C369.74 12.75 369.74 12.54 369.73 12.32C369.71 12.10 369.71 11.91 369.70 11.76C369.68 11.61 369.68 11.52 369.68 11.51C369.67 11.28 369.57 11.17 369.38 11.17L369.04 11.17L369.04 13.02L369.04 13.20L369.04 13.38C369.89 13.75 370.78 13.93 371.70 13.93C372.20 13.93 372.65 13.85 373.04 13.69C373.44 13.54 373.77 13.31 374.04 13.05C374.30 12.78 374.53 12.46 374.67 12.10C374.81 11.73 374.88 11.34 374.88 10.92C374.88 10.51 374.81 10.18 374.67 9.91ZM407.32 3.92L406.77 3.92L406.73 3.92L405.26 3.92L405.26 4.19C405.26 4.34 405.34 4.42 405.52 4.44L405.65 4.44C405.71 4.44 405.80 4.45 405.94 4.45C406.08 4.45 406.22 4.47 406.39 4.47L404.01 12.24C403.98 12.33 403.96 12.43 403.94 12.54C403.93 12.66 403.90 12.75 403.87 12.87C403.84 12.75 403.83 12.63 403.80 12.53L403.72 12.24L400.92 4.10C400.89 4.05 400.86 3.99 400.82 3.96C400.78 3.93 400.72 3.92 400.65 3.92L400.46 3.92C400.39 3.92 400.33 3.93 400.29 3.98C400.25 4.02 400.20 4.05 400.19 4.10L397.39 12.25C397.36 12.35 397.33 12.43 397.31 12.54C397.28 12.64 397.26 12.75 397.24 12.88C397.22 12.78 397.19 12.67 397.17 12.54C397.15 12.43 397.12 12.33 397.10 12.24L394.72 4.47C394.88 4.47 395.02 4.45 395.15 4.45C395.28 4.45 395.36 4.44 395.42 4.44L395.53 4.44C395.71 4.42 395.81 4.34 395.81 4.19L395.81 3.92L394.34 3.92L393.75 3.92L393.15 3.92L393.15 4.19C393.15 4.34 393.25 4.42 393.43 4.44L393.53 4.44C393.57 4.44 393.61 4.45 393.68 4.45C393.75 4.45 393.83 4.47 393.92 4.47L396.87 13.82L397.50 13.82L400.44 5.22C400.48 5.11 400.51 5.00 400.54 4.87C400.57 5.00 400.60 5.11 400.64 5.22L403.56 13.82L404.21 13.82L407.15 4.47C407.23 4.47 407.30 4.45 407.37 4.45C407.44 4.45 407.50 4.44 407.54 4.44L407.64 4.44C407.82 4.42 407.90 4.34 407.90 4.19L407.90 3.92ZM418.77 4.44C418.95 4.42 419.03 4.34 419.03 4.19L419.03 3.91L417.86 3.91L417.14 3.91L415.95 3.91L415.95 4.19C415.95 4.34 416.05 4.42 416.23 4.44L416.37 4.44C416.44 4.44 416.54 4.45 416.68 4.45C416.82 4.45 416.98 4.47 417.14 4.47L417.14 13.26C416.98 13.26 416.82 13.27 416.68 13.27C416.54 13.27 416.44 13.29 416.37 13.29L416.23 13.29C416.05 13.30 415.95 13.38 415.95 13.54L415.95 13.82L417.14 13.82L417.86 13.82L419.03 13.82L419.03 13.54C419.03 13.38 418.95 13.30 418.77 13.29L418.63 13.29C418.56 13.29 418.46 13.27 418.32 13.27C418.18 13.27 418.03 13.26 417.86 13.26L417.86 4.47C418.03 4.47 418.18 4.45 418.32 4.45C418.46 4.45 418.56 4.44 418.63 4.44ZM434.90 3.92L434.70 3.92L427.41 3.92L427.20 3.92L427.10 3.92L427.10 5.96L427.45 5.96C427.64 5.96 427.73 5.85 427.74 5.63C427.74 5.53 427.77 5.17 427.80 4.52L430.70 4.52L430.70 13.26C430.53 13.26 430.39 13.27 430.25 13.27C430.11 13.27 430.00 13.29 429.93 13.29L429.80 13.29C429.62 13.30 429.52 13.38 429.52 13.54L429.52 13.82L430.70 13.82L431.41 13.82L432.60 13.82L432.60 13.54C432.60 13.38 432.50 13.30 432.32 13.29L432.18 13.29C432.11 13.29 432.01 13.27 431.87 13.27C431.73 13.27 431.58 13.26 431.41 13.26L431.41 4.52L434.29 4.52C434.34 5.24 434.35 5.60 434.35 5.63C434.36 5.85 434.46 5.96 434.66 5.96L434.99 5.96L434.99 3.92ZM452.83 4.44C453.01 4.42 453.11 4.34 453.11 4.19L453.11 3.92L451.93 3.92L451.21 3.92L450.03 3.92L450.03 4.19C450.03 4.34 450.13 4.42 450.31 4.44L450.44 4.44C450.51 4.44 450.62 4.45 450.76 4.45C450.90 4.45 451.04 4.47 451.21 4.47L451.21 8.53L445.00 8.53L445.00 4.47C445.17 4.47 445.33 4.45 445.47 4.45C445.61 4.45 445.70 4.44 445.77 4.44L445.91 4.44C446.10 4.42 446.18 4.34 446.18 4.19L446.18 3.92L445.00 3.92L444.29 3.92L443.10 3.92L443.10 4.19C443.10 4.34 443.20 4.42 443.38 4.44L443.52 4.44C443.59 4.44 443.69 4.45 443.83 4.45C443.97 4.45 444.12 4.47 444.29 4.47L444.29 13.26C444.12 13.26 443.97 13.27 443.83 13.27C443.69 13.27 443.59 13.29 443.52 13.29L443.38 13.29C443.20 13.30 443.10 13.38 443.10 13.54L443.10 13.82L444.29 13.82L445.00 13.82L446.18 13.82L446.18 13.54C446.18 13.38 446.10 13.30 445.91 13.29L445.77 13.29C445.70 13.29 445.61 13.27 445.47 13.27C445.33 13.27 445.17 13.26 445.00 13.26L445.00 9.07L451.21 9.07L451.21 13.26C451.04 13.26 450.90 13.27 450.76 13.27C450.62 13.27 450.51 13.29 450.44 13.29L450.31 13.29C450.13 13.30 450.03 13.38 450.03 13.54L450.03 13.82L451.21 13.82L451.93 13.82L453.11 13.82L453.11 13.54C453.11 13.38 453.01 13.30 452.83 13.29L452.70 13.29C452.63 13.29 452.52 13.27 452.38 13.27C452.24 13.27 452.10 13.26 451.93 13.26L451.93 4.47C452.10 4.47 452.24 4.45 452.38 4.45C452.52 4.45 452.63 4.44 452.70 4.44ZM464.27 4.44C464.45 4.42 464.53 4.34 464.53 4.19L464.53 3.91L463.36 3.91L462.64 3.91L461.45 3.91L461.45 4.19C461.45 4.34 461.55 4.42 461.73 4.44L461.87 4.44C461.94 4.44 462.04 4.45 462.18 4.45C462.32 4.45 462.48 4.47 462.64 4.47L462.64 13.26C462.48 13.26 462.32 13.27 462.18 13.27C462.04 13.27 461.94 13.29 461.87 13.29L461.73 13.29C461.55 13.30 461.45 13.38 461.45 13.54L461.45 13.82L462.64 13.82L463.36 13.82L464.53 13.82L464.53 13.54C464.53 13.38 464.45 13.30 464.27 13.29L464.13 13.29C464.06 13.29 463.96 13.27 463.82 13.27C463.68 13.27 463.53 13.26 463.36 13.26L463.36 4.47C463.53 4.47 463.68 4.45 463.82 4.45C463.96 4.45 464.06 4.44 464.13 4.44ZM481.71 3.92L481.08 3.92L479.86 3.92L479.86 4.19C479.86 4.34 479.96 4.42 480.14 4.44L480.28 4.44C480.35 4.44 480.47 4.45 480.61 4.45C480.75 4.45 480.91 4.47 481.08 4.47L481.08 12.22C481.08 12.35 481.08 12.49 481.10 12.63L474.68 4.05C474.64 3.99 474.61 3.95 474.57 3.93C474.53 3.92 474.49 3.91 474.42 3.91L474.07 3.91L472.88 3.91L472.88 4.19C472.88 4.34 472.98 4.42 473.16 4.44L473.30 4.44C473.37 4.44 473.47 4.45 473.61 4.45C473.75 4.45 473.90 4.47 474.07 4.47L474.07 13.26C473.90 13.26 473.75 13.27 473.61 13.27C473.47 13.27 473.37 13.29 473.30 13.29L473.16 13.29C472.98 13.30 472.88 13.38 472.88 13.54L472.88 13.82L474.07 13.82L474.68 13.82L475.90 13.82L475.90 13.54C475.90 13.38 475.80 13.30 475.62 13.29L475.48 13.29C475.41 13.29 475.29 13.27 475.15 13.27C475.01 13.27 474.85 13.26 474.68 13.26L474.68 5.49C474.68 5.36 474.68 5.22 474.67 5.08L481.11 13.68C481.18 13.78 481.25 13.82 481.36 13.82L481.71 13.82L481.71 4.47C481.88 4.47 482.02 4.45 482.16 4.45C482.30 4.45 482.41 4.44 482.48 4.44L482.61 4.44C482.79 4.42 482.89 4.34 482.89 4.19L482.89 3.92ZM509.03 12.21C509.00 12.18 508.96 12.15 508.91 12.15C508.89 12.15 508.87 12.15 508.84 12.17C508.83 12.18 508.80 12.21 508.77 12.22C508.58 12.40 508.37 12.56 508.17 12.70C507.98 12.84 507.77 12.94 507.53 13.03C507.29 13.13 507.04 13.20 506.76 13.24C506.48 13.29 506.17 13.31 505.82 13.31C505.26 13.31 504.71 13.22 504.24 13.01C503.75 12.81 503.34 12.52 502.99 12.14C502.64 11.76 502.35 11.28 502.15 10.74C501.96 10.19 501.86 9.56 501.86 8.86C501.86 8.18 501.96 7.56 502.15 7.01C502.36 6.47 502.64 6.01 503.01 5.61C503.37 5.24 503.80 4.94 504.31 4.73C504.81 4.52 505.36 4.42 505.96 4.42C506.86 4.42 507.68 4.56 508.41 4.89C508.45 5.78 508.49 6.30 508.49 6.41C508.51 6.64 508.59 6.75 508.79 6.75L509.12 6.75L509.12 4.51C507.95 4.03 506.88 3.81 505.96 3.81C505.25 3.81 504.60 3.92 504.00 4.17C503.41 4.42 502.88 4.76 502.46 5.21C502.03 5.66 501.70 6.19 501.47 6.80C501.23 7.42 501.12 8.11 501.12 8.86C501.12 9.63 501.24 10.32 501.47 10.95C501.69 11.58 502.01 12.10 502.42 12.54C502.82 12.99 503.31 13.33 503.89 13.57C504.46 13.80 505.08 13.93 505.76 13.93C506.17 13.93 506.55 13.90 506.90 13.83C507.23 13.76 507.56 13.66 507.85 13.54C508.13 13.41 508.40 13.26 508.63 13.09C508.87 12.91 509.10 12.73 509.31 12.50ZM527.04 4.44C527.23 4.42 527.32 4.34 527.32 4.19L527.32 3.92L526.15 3.92L525.42 3.92L524.24 3.92L524.24 4.19C524.24 4.34 524.34 4.42 524.52 4.44L524.65 4.44C524.72 4.44 524.83 4.45 524.97 4.45C525.11 4.45 525.25 4.47 525.42 4.47L525.42 8.53L519.22 8.53L519.22 4.47C519.39 4.47 519.54 4.45 519.68 4.45C519.82 4.45 519.92 4.44 519.99 4.44L520.13 4.44C520.31 4.42 520.39 4.34 520.39 4.19L520.39 3.92L519.22 3.92L518.50 3.92L517.31 3.92L517.31 4.19C517.31 4.34 517.41 4.42 517.59 4.44L517.73 4.44C517.80 4.44 517.90 4.45 518.04 4.45C518.18 4.45 518.34 4.47 518.50 4.47L518.50 13.26C518.34 13.26 518.18 13.27 518.04 13.27C517.90 13.27 517.80 13.29 517.73 13.29L517.59 13.29C517.41 13.30 517.31 13.38 517.31 13.54L517.31 13.82L518.50 13.82L519.22 13.82L520.39 13.82L520.39 13.54C520.39 13.38 520.31 13.30 520.13 13.29L519.99 13.29C519.92 13.29 519.82 13.27 519.68 13.27C519.54 13.27 519.39 13.26 519.22 13.26L519.22 9.07L525.42 9.07L525.42 13.26C525.25 13.26 525.11 13.27 524.97 13.27C524.83 13.27 524.72 13.29 524.65 13.29L524.52 13.29C524.34 13.30 524.24 13.38 524.24 13.54L524.24 13.82L525.42 13.82L526.15 13.82L527.32 13.82L527.32 13.54C527.32 13.38 527.23 13.30 527.04 13.29L526.92 13.29C526.85 13.29 526.74 13.27 526.60 13.27C526.46 13.27 526.32 13.26 526.15 13.26L526.15 4.47C526.32 4.47 526.46 4.45 526.60 4.45C526.74 4.45 526.85 4.44 526.92 4.44ZM544.96 13.22L544.50 13.17L540.72 3.91L540.01 3.91L536.21 13.17L535.77 13.22C535.58 13.23 535.50 13.33 535.50 13.50L535.50 13.82L535.95 13.82L536.24 13.82L536.49 13.82L536.59 13.82L537.91 13.82L537.91 13.50C537.91 13.31 537.80 13.23 537.59 13.22C537.57 13.22 537.54 13.20 537.50 13.20C537.46 13.20 537.40 13.19 537.31 13.19C537.21 13.19 537.08 13.19 536.94 13.17L537.92 10.75L537.99 10.57L542.72 10.57L542.79 10.75L543.77 13.17C543.63 13.19 543.52 13.19 543.42 13.19C543.33 13.19 543.26 13.20 543.21 13.20C543.17 13.20 543.14 13.22 543.13 13.22C542.92 13.23 542.81 13.31 542.81 13.50L542.81 13.82L544.12 13.82L544.22 13.82L544.49 13.82L544.77 13.82L545.23 13.82L545.23 13.50C545.23 13.33 545.15 13.23 544.96 13.22ZM540.16 5.22C540.19 5.14 540.23 5.04 540.26 4.94C540.29 4.84 540.33 4.75 540.36 4.63C540.39 4.75 540.43 4.84 540.46 4.94C540.48 5.04 540.53 5.12 540.55 5.21L542.51 10.04L538.22 10.04ZM561.46 13.29L561.36 13.29L561.18 13.29C561.09 13.29 561.01 13.27 560.92 13.27L557.96 9.53C557.87 9.42 557.76 9.32 557.65 9.25C558.08 9.21 558.47 9.11 558.82 8.96C559.17 8.81 559.45 8.61 559.71 8.37C559.94 8.13 560.14 7.85 560.27 7.55C560.39 7.24 560.46 6.89 560.46 6.51C560.46 5.66 560.18 5.03 559.62 4.58C559.06 4.14 558.21 3.92 557.06 3.92L554.65 3.92L553.48 3.92L553.48 4.19C553.48 4.34 553.56 4.42 553.74 4.44L553.88 4.44C553.95 4.44 554.05 4.45 554.19 4.45C554.33 4.45 554.48 4.47 554.65 4.47L554.65 13.26C554.48 13.26 554.33 13.27 554.19 13.27C554.05 13.27 553.95 13.29 553.88 13.29L553.74 13.29C553.56 13.30 553.46 13.38 553.46 13.54L553.46 13.82L554.65 13.82L555.37 13.82L556.54 13.82L556.54 13.54C556.54 13.38 556.44 13.30 556.26 13.29L556.12 13.29C556.05 13.29 555.95 13.27 555.81 13.27C555.67 13.27 555.53 13.26 555.37 13.26L555.37 9.34L556.54 9.34C556.74 9.34 556.88 9.35 556.96 9.39C557.05 9.44 557.13 9.52 557.21 9.62L560.39 13.64C560.45 13.71 560.49 13.75 560.55 13.78C560.60 13.80 560.67 13.82 560.74 13.82L560.81 13.82L561.36 13.82L561.72 13.82L561.72 13.54C561.72 13.38 561.64 13.30 561.46 13.29ZM556.96 8.81L555.37 8.81L555.37 4.48L557.06 4.48C557.94 4.48 558.61 4.66 559.08 5.00C559.54 5.33 559.76 5.87 559.76 6.57C559.76 6.92 559.71 7.21 559.58 7.49C559.45 7.77 559.26 7.99 559.02 8.19C558.78 8.39 558.49 8.55 558.14 8.65C557.79 8.75 557.40 8.81 556.96 8.81ZM576.30 11.97C576.10 11.97 576.02 12.08 576.00 12.31C576.00 12.32 576.00 12.38 575.99 12.43C575.97 12.49 575.97 12.59 575.96 12.71C575.95 12.84 575.93 13.01 575.92 13.20L571.83 13.20L571.83 4.47C572.00 4.47 572.14 4.45 572.28 4.45C572.42 4.45 572.53 4.44 572.60 4.44L572.73 4.44C572.91 4.42 573.01 4.34 573.01 4.19L573.01 3.92L571.83 3.92L571.12 3.92L569.93 3.92L569.93 4.19C569.93 4.34 570.02 4.42 570.21 4.44L570.35 4.44C570.42 4.44 570.51 4.45 570.65 4.45C570.79 4.45 570.95 4.47 571.12 4.47L571.12 13.26C570.95 13.26 570.79 13.27 570.65 13.27C570.51 13.27 570.42 13.29 570.35 13.29L570.21 13.29C570.02 13.30 569.93 13.38 569.93 13.54L569.93 13.82L571.12 13.82L576.39 13.82L576.52 13.82L576.65 13.82L576.65 13.55L576.65 12.99L576.65 11.97L576.37 11.97ZM593.78 8.86C593.78 8.11 593.66 7.41 593.43 6.79C593.21 6.17 592.89 5.64 592.47 5.19C592.05 4.75 591.56 4.40 590.98 4.16C590.41 3.92 589.75 3.79 589.05 3.79C588.35 3.79 587.72 3.92 587.15 4.16C586.57 4.40 586.07 4.75 585.65 5.19C585.23 5.64 584.91 6.17 584.68 6.79C584.46 7.41 584.33 8.11 584.33 8.86C584.33 9.63 584.46 10.33 584.68 10.95C584.91 11.56 585.23 12.10 585.65 12.54C586.07 12.99 586.57 13.33 587.15 13.57C587.72 13.80 588.35 13.93 589.05 13.93C589.75 13.93 590.41 13.80 590.98 13.57C591.56 13.33 592.05 12.99 592.47 12.54C592.89 12.10 593.21 11.56 593.43 10.95C593.66 10.33 593.78 9.63 593.78 8.86ZM593.03 8.86C593.03 9.56 592.94 10.18 592.75 10.72C592.55 11.27 592.28 11.75 591.93 12.12C591.58 12.50 591.16 12.81 590.67 13.01C590.18 13.20 589.65 13.30 589.05 13.30C588.46 13.30 587.93 13.20 587.44 13.01C586.95 12.81 586.53 12.50 586.18 12.12C585.83 11.75 585.55 11.27 585.35 10.72C585.16 10.18 585.07 9.56 585.07 8.86C585.07 8.18 585.16 7.55 585.35 7.00C585.55 6.45 585.83 5.98 586.18 5.60C586.53 5.22 586.95 4.91 587.44 4.72C587.93 4.52 588.46 4.41 589.05 4.41C589.65 4.41 590.18 4.52 590.67 4.72C591.16 4.91 591.58 5.22 591.93 5.60C592.28 5.98 592.55 6.45 592.75 7.00C592.94 7.55 593.03 8.18 593.03 8.86ZM609.49 3.92L609.29 3.92L602.00 3.92L601.79 3.92L601.69 3.92L601.69 5.96L602.04 5.96C602.24 5.96 602.32 5.85 602.34 5.63C602.34 5.53 602.36 5.17 602.39 4.52L605.29 4.52L605.29 13.26C605.12 13.26 604.98 13.27 604.84 13.27C604.70 13.27 604.59 13.29 604.52 13.29L604.39 13.29C604.21 13.30 604.11 13.38 604.11 13.54L604.11 13.82L605.29 13.82L606.00 13.82L607.19 13.82L607.19 13.54C607.19 13.38 607.10 13.30 606.91 13.29L606.77 13.29C606.70 13.29 606.61 13.27 606.47 13.27C606.33 13.27 606.17 13.26 606.00 13.26L606.00 4.52L608.89 4.52C608.93 5.24 608.94 5.60 608.94 5.63C608.96 5.85 609.06 5.96 609.25 5.96L609.59 5.96L609.59 3.92ZM625.21 3.92L625.02 3.92L617.72 3.92L617.51 3.92L617.41 3.92L617.41 5.96L617.76 5.96C617.96 5.96 618.04 5.85 618.06 5.63C618.06 5.53 618.09 5.17 618.11 4.52L621.01 4.52L621.01 13.26C620.84 13.26 620.70 13.27 620.56 13.27C620.42 13.27 620.31 13.29 620.24 13.29L620.12 13.29C619.93 13.30 619.84 13.38 619.84 13.54L619.84 13.82L621.01 13.82L621.73 13.82L622.92 13.82L622.92 13.54C622.92 13.38 622.82 13.30 622.64 13.29L622.50 13.29C622.43 13.29 622.33 13.27 622.19 13.27C622.05 13.27 621.89 13.26 621.73 13.26L621.73 4.52L624.61 4.52C624.65 5.24 624.67 5.60 624.67 5.63C624.68 5.85 624.78 5.96 624.97 5.96L625.31 5.96L625.31 3.92ZM634.61 3.92L633.42 3.92L633.42 4.19C633.42 4.34 633.51 4.42 633.70 4.44L633.84 4.44C633.91 4.44 634.00 4.45 634.14 4.45C634.28 4.45 634.44 4.47 634.61 4.47L634.61 13.26C634.44 13.26 634.28 13.27 634.14 13.27C634.00 13.27 633.91 13.29 633.84 13.29L633.70 13.29C633.51 13.30 633.43 13.38 633.43 13.54L633.43 13.82L634.61 13.82L640.54 13.82L640.54 13.22L640.54 11.76L640.19 11.76C640.00 11.76 639.91 11.89 639.90 12.11C639.90 12.14 639.88 12.19 639.88 12.29C639.88 12.39 639.88 12.53 639.87 12.74C639.86 12.95 639.84 13.09 639.84 13.22L635.32 13.22L635.32 9.09L639.27 9.09L639.27 8.51L635.32 8.51L635.32 4.51L639.84 4.51C639.87 5.12 639.90 5.50 639.90 5.63C639.91 5.85 640.00 5.96 640.19 5.96L640.54 5.96L640.54 4.51L640.54 3.92ZM649.43 13.23C649.43 13.41 649.47 13.57 649.59 13.68C649.70 13.79 649.85 13.85 650.02 13.85L650.13 13.85C650.16 13.85 650.19 13.83 650.22 13.82C650.20 13.99 650.16 14.14 650.10 14.29C650.05 14.45 649.98 14.57 649.91 14.70C649.84 14.83 649.77 14.94 649.70 15.02C649.63 15.11 649.56 15.19 649.52 15.23C649.50 15.25 649.49 15.27 649.47 15.30C649.46 15.33 649.45 15.33 649.45 15.36C649.45 15.40 649.46 15.44 649.50 15.48L649.61 15.58C649.77 15.43 649.92 15.29 650.05 15.11C650.17 14.92 650.29 14.74 650.38 14.55C650.48 14.35 650.54 14.15 650.59 13.96C650.65 13.76 650.66 13.58 650.66 13.38C650.66 13.16 650.61 12.98 650.50 12.84C650.38 12.70 650.23 12.63 650.03 12.63C649.85 12.63 649.71 12.70 649.60 12.81C649.49 12.92 649.43 13.06 649.43 13.23ZM678.52 3.92L677.89 3.92L676.68 3.92L676.68 4.19C676.68 4.34 676.77 4.42 676.96 4.44L677.10 4.44C677.17 4.44 677.28 4.45 677.42 4.45C677.56 4.45 677.73 4.47 677.89 4.47L677.89 12.22C677.89 12.35 677.89 12.49 677.91 12.63L671.50 4.05C671.45 3.99 671.43 3.95 671.38 3.93C671.34 3.92 671.30 3.91 671.23 3.91L670.88 3.91L669.69 3.91L669.69 4.19C669.69 4.34 669.79 4.42 669.97 4.44L670.11 4.44C670.18 4.44 670.28 4.45 670.42 4.45C670.56 4.45 670.71 4.47 670.88 4.47L670.88 13.26C670.71 13.26 670.56 13.27 670.42 13.27C670.28 13.27 670.18 13.29 670.11 13.29L669.97 13.29C669.79 13.30 669.69 13.38 669.69 13.54L669.69 13.82L670.88 13.82L671.50 13.82L672.71 13.82L672.71 13.54C672.71 13.38 672.62 13.30 672.43 13.29L672.29 13.29C672.22 13.29 672.10 13.27 671.96 13.27C671.82 13.27 671.66 13.26 671.50 13.26L671.50 5.49C671.50 5.36 671.50 5.22 671.48 5.08L677.92 13.68C677.99 13.78 678.06 13.82 678.17 13.82L678.52 13.82L678.52 4.47C678.69 4.47 678.83 4.45 678.97 4.45C679.11 4.45 679.22 4.44 679.29 4.44L679.42 4.44C679.60 4.42 679.70 4.34 679.70 4.19L679.70 3.92ZM695.46 12.21C695.44 12.18 695.39 12.15 695.35 12.15C695.32 12.15 695.31 12.15 695.28 12.17C695.27 12.18 695.24 12.21 695.21 12.22C695.02 12.40 694.81 12.56 694.61 12.70C694.41 12.84 694.20 12.94 693.97 13.03C693.73 13.13 693.48 13.20 693.20 13.24C692.92 13.29 692.61 13.31 692.26 13.31C691.70 13.31 691.15 13.22 690.68 13.01C690.19 12.81 689.78 12.52 689.43 12.14C689.08 11.76 688.79 11.28 688.59 10.74C688.39 10.19 688.30 9.56 688.30 8.86C688.30 8.18 688.39 7.56 688.59 7.01C688.80 6.47 689.08 6.01 689.44 5.61C689.81 5.24 690.24 4.94 690.75 4.73C691.25 4.52 691.80 4.42 692.40 4.42C693.29 4.42 694.12 4.56 694.85 4.89C694.89 5.78 694.93 6.30 694.93 6.41C694.95 6.64 695.03 6.75 695.23 6.75L695.56 6.75L695.56 4.51C694.39 4.03 693.32 3.81 692.40 3.81C691.68 3.81 691.04 3.92 690.44 4.17C689.85 4.42 689.32 4.76 688.90 5.21C688.46 5.66 688.14 6.19 687.90 6.80C687.67 7.42 687.55 8.11 687.55 8.86C687.55 9.63 687.68 10.32 687.90 10.95C688.13 11.58 688.45 12.10 688.86 12.54C689.26 12.99 689.75 13.33 690.33 13.57C690.90 13.80 691.52 13.93 692.20 13.93C692.61 13.93 692.99 13.90 693.34 13.83C693.67 13.76 693.99 13.66 694.29 13.54C694.57 13.41 694.83 13.26 695.07 13.09C695.31 12.91 695.53 12.73 695.74 12.50ZM723.42 13.22L722.96 13.17L719.18 3.91L718.47 3.91L714.67 13.17L714.22 13.22C714.04 13.23 713.96 13.33 713.96 13.50L713.96 13.82L714.41 13.82L714.70 13.82L714.95 13.82L715.05 13.82L716.37 13.82L716.37 13.50C716.37 13.31 716.25 13.23 716.04 13.22C716.03 13.22 716.00 13.20 715.96 13.20C715.92 13.20 715.86 13.19 715.76 13.19C715.67 13.19 715.54 13.19 715.40 13.17L716.38 10.75L716.45 10.57L721.18 10.57L721.25 10.75L722.23 13.17C722.09 13.19 721.98 13.19 721.88 13.19C721.78 13.19 721.71 13.20 721.67 13.20C721.63 13.20 721.60 13.22 721.59 13.22C721.38 13.23 721.27 13.31 721.27 13.50L721.27 13.82L722.58 13.82L722.68 13.82L722.95 13.82L723.23 13.82L723.69 13.82L723.69 13.50C723.69 13.33 723.60 13.23 723.42 13.22ZM718.62 5.22C718.65 5.14 718.69 5.04 718.72 4.94C718.75 4.84 718.79 4.75 718.82 4.63C718.84 4.75 718.89 4.84 718.91 4.94C718.94 5.04 718.98 5.12 719.01 5.21L720.97 10.04L716.67 10.04ZM739.91 13.29L739.82 13.29L739.63 13.29C739.55 13.29 739.47 13.27 739.38 13.27L736.41 9.53C736.33 9.42 736.22 9.32 736.11 9.25C736.54 9.21 736.93 9.11 737.28 8.96C737.63 8.81 737.91 8.61 738.16 8.37C738.40 8.13 738.60 7.85 738.72 7.55C738.85 7.24 738.92 6.89 738.92 6.51C738.92 5.66 738.64 5.03 738.08 4.58C737.52 4.14 736.67 3.92 735.52 3.92L733.11 3.92L731.93 3.92L731.93 4.19C731.93 4.34 732.02 4.42 732.20 4.44L732.34 4.44C732.41 4.44 732.51 4.45 732.65 4.45C732.79 4.45 732.94 4.47 733.11 4.47L733.11 13.26C732.94 13.26 732.79 13.27 732.65 13.27C732.51 13.27 732.41 13.29 732.34 13.29L732.20 13.29C732.02 13.30 731.92 13.38 731.92 13.54L731.92 13.82L733.11 13.82L733.82 13.82L735.00 13.82L735.00 13.54C735.00 13.38 734.90 13.30 734.72 13.29L734.58 13.29C734.51 13.29 734.41 13.27 734.27 13.27C734.13 13.27 733.99 13.26 733.82 13.26L733.82 9.34L735.00 9.34C735.20 9.34 735.34 9.35 735.42 9.39C735.50 9.44 735.59 9.52 735.67 9.62L738.85 13.64C738.91 13.71 738.95 13.75 739.00 13.78C739.06 13.80 739.13 13.82 739.20 13.82L739.27 13.82L739.82 13.82L740.18 13.82L740.18 13.54C740.18 13.38 740.10 13.30 739.91 13.29ZM735.42 8.81L733.82 8.81L733.82 4.48L735.52 4.48C736.40 4.48 737.07 4.66 737.53 5.00C738.00 5.33 738.22 5.87 738.22 6.57C738.22 6.92 738.16 7.21 738.04 7.49C737.91 7.77 737.72 7.99 737.48 8.19C737.24 8.39 736.95 8.55 736.60 8.65C736.25 8.75 735.85 8.81 735.42 8.81ZM749.57 3.92L748.38 3.92L748.38 4.19C748.38 4.34 748.48 4.42 748.66 4.44L748.80 4.44C748.87 4.44 748.97 4.45 749.11 4.45C749.25 4.45 749.41 4.47 749.57 4.47L749.57 13.26C749.41 13.26 749.25 13.27 749.11 13.27C748.97 13.27 748.87 13.29 748.80 13.29L748.66 13.29C748.48 13.30 748.40 13.38 748.40 13.54L748.40 13.82L749.57 13.82L755.51 13.82L755.51 13.22L755.51 11.76L755.16 11.76C754.96 11.76 754.88 11.89 754.87 12.11C754.87 12.14 754.85 12.19 754.85 12.29C754.85 12.39 754.85 12.53 754.84 12.74C754.82 12.95 754.81 13.09 754.81 13.22L750.29 13.22L750.29 9.09L754.24 9.09L754.24 8.51L750.29 8.51L750.29 4.51L754.81 4.51C754.84 5.12 754.87 5.50 754.87 5.63C754.88 5.85 754.96 5.96 755.16 5.96L755.51 5.96L755.51 4.51L755.51 3.92ZM773.39 13.22L772.93 13.17L769.15 3.91L768.43 3.91L764.64 13.17L764.19 13.22C764.01 13.23 763.92 13.33 763.92 13.50L763.92 13.82L764.37 13.82L764.67 13.82L764.92 13.82L765.02 13.82L766.33 13.82L766.33 13.50C766.33 13.31 766.22 13.23 766.01 13.22C766.00 13.22 765.97 13.20 765.93 13.20C765.88 13.20 765.83 13.19 765.73 13.19C765.63 13.19 765.51 13.19 765.37 13.17L766.35 10.75L766.42 10.57L771.15 10.57L771.22 10.75L772.20 13.17C772.06 13.19 771.95 13.19 771.85 13.19C771.75 13.19 771.68 13.20 771.64 13.20C771.60 13.20 771.57 13.22 771.55 13.22C771.34 13.23 771.23 13.31 771.23 13.50L771.23 13.82L772.55 13.82L772.65 13.82L772.91 13.82L773.19 13.82L773.65 13.82L773.65 13.50C773.65 13.33 773.57 13.23 773.39 13.22ZM768.59 5.22C768.61 5.14 768.66 5.04 768.68 4.94C768.71 4.84 768.75 4.75 768.78 4.63C768.81 4.75 768.85 4.84 768.88 4.94C768.91 5.04 768.95 5.12 768.98 5.21L770.94 10.04L766.64 10.04Z"></path></g></svg>